<?xml version="1.0" encoding="UTF-8" standalone="no"?>
<!DOCTYPE svg PUBLIC "-//W3C//DTD SVG 1.1//EN" "http://www.w3.org/Graphics/SVG/1.1/DTD/svg11.dtd">
<svg xmlns="http://www.w3.org/2000/svg" version="1.1" viewBox="0.00 0.00 682.00 690.00">
<path fill="#F1F5F9" d="
  M 19.58 342.50
  A 0.67 0.65 -40.8 0 1 19.66 341.53
  Q 29.53 333.73 37.05 325.30
  C 39.04 323.06 39.90 319.65 40.28 316.32
  Q 40.86 311.31 43.57 290.03
  Q 50.97 231.93 81.80 181.57
  Q 89.50 168.98 97.85 158.86
  Q 114.65 138.51 116.85 135.65
  A 2.60 2.57 56.7 0 0 117.30 133.42
  Q 116.63 130.89 116.55 128.86
  C 116.26 120.66 122.70 113.84 130.70 112.78
  C 132.78 112.51 136.13 113.21 138.24 113.59
  A 1.05 1.03 -62.8 0 0 139.18 113.28
  C 146.72 105.21 153.29 97.88 161.45 91.23
  Q 165.53 87.90 174.51 81.80
  Q 201.17 63.70 227.61 53.40
  Q 251.88 43.93 275.13 38.71
  Q 295.56 34.11 320.06 31.12
  C 323.46 30.70 326.65 28.78 329.49 26.19
  Q 331.83 24.07 340.55 16.41
  A 1.59 1.59 0.0 0 1 342.01 16.07
  Q 344.45 16.74 346.47 18.55
  Q 352.32 23.78 356.07 27.56
  A 7.46 7.43 80.2 0 0 358.17 29.05
  Q 363.00 31.36 366.26 31.74
  Q 397.98 35.43 418.45 40.66
  C 466.75 53.00 511.09 77.84 546.70 112.88
  A 1.11 1.08 64.9 0 0 547.53 113.19
  C 552.94 112.87 558.79 113.26 563.18 116.72
  Q 572.04 123.71 568.66 134.09
  A 1.87 1.87 0.0 0 0 569.03 135.90
  C 573.71 141.28 580.55 148.10 584.77 153.88
  C 587.57 157.72 591.73 162.71 594.95 167.47
  Q 610.24 190.03 621.27 215.22
  C 631.69 239.00 638.61 266.24 642.58 292.43
  Q 643.21 296.58 646.15 320.36
  Q 646.35 322.05 648.72 324.84
  Q 656.27 333.74 664.47 342.12
  A 1.08 1.07 45.2 0 1 664.47 343.63
  Q 656.97 351.29 650.92 358.91
  Q 648.92 361.42 647.55 363.60
  Q 646.55 365.19 646.11 369.11
  Q 643.32 393.98 639.52 412.78
  Q 628.75 466.10 598.15 511.14
  Q 591.40 521.08 568.65 548.81
  A 0.97 0.95 -33.6 0 0 568.47 549.65
  Q 571.50 561.18 562.83 568.86
  C 558.77 572.45 553.94 571.81 549.15 570.63
  A 1.16 1.14 -58.5 0 0 548.10 570.89
  Q 533.07 584.37 518.12 597.12
  Q 507.94 605.81 496.11 612.59
  C 476.98 623.58 457.73 633.33 436.76 640.48
  Q 422.45 645.36 401.72 649.66
  Q 381.98 653.75 364.09 656.03
  Q 361.27 656.39 359.47 657.94
  Q 354.94 661.84 344.15 671.67
  Q 342.27 673.38 340.54 671.72
  Q 338.56 669.82 330.20 661.57
  C 325.60 657.03 321.84 655.30 315.01 654.28
  Q 282.96 649.50 248.37 639.34
  Q 239.96 636.87 231.73 633.47
  Q 198.98 619.95 170.11 599.13
  Q 154.42 587.82 140.45 573.04
  Q 139.11 571.62 137.69 570.91
  A 2.49 2.44 55.9 0 0 136.45 570.66
  Q 130.96 570.99 128.80 570.65
  C 123.90 569.87 118.23 565.65 116.43 561.01
  Q 114.18 555.20 117.14 549.22
  A 1.24 1.23 -54.8 0 0 116.90 547.80
  Q 87.82 518.85 69.99 481.78
  C 52.92 446.29 43.92 408.11 39.94 369.03
  C 39.24 362.18 36.47 358.84 31.11 353.83
  Q 24.02 347.21 19.58 342.50
  Z
  M 436.64 144.40
  Q 430.97 124.82 418.57 107.32
  Q 411.81 97.80 390.52 76.98
  Q 366.76 53.75 342.82 32.44
  A 1.41 1.41 0.0 0 0 340.90 32.48
  Q 312.93 59.18 287.42 85.41
  C 271.82 101.44 256.77 121.28 251.02 143.08
  A 2.14 2.12 -69.0 0 0 252.09 145.51
  Q 268.10 153.92 281.04 166.21
  Q 290.48 175.18 298.73 185.01
  A 1.16 1.16 0.0 0 0 300.45 185.08
  L 331.09 154.45
  A 3.56 3.54 -24.9 0 0 332.12 151.66
  L 331.74 146.59
  A 0.82 0.56 -52.9 0 1 331.75 146.38
  Q 333.21 138.04 341.34 137.40
  C 345.40 137.08 351.30 138.85 352.85 143.08
  C 353.90 145.95 353.19 149.87 352.64 152.73
  A 3.23 3.22 28.1 0 0 353.52 155.61
  L 381.21 183.29
  A 1.05 1.04 53.6 0 0 382.45 183.48
  Q 383.59 182.87 384.83 181.59
  Q 400.58 165.33 420.79 153.33
  Q 429.48 148.17 436.36 145.02
  A 0.52 0.52 0.0 0 0 436.64 144.40
  Z
  M 375.47 44.38
  A 0.40 0.40 0.0 0 0 375.12 45.06
  Q 394.66 63.51 409.09 78.15
  Q 419.67 88.88 426.47 98.02
  Q 437.52 112.87 444.46 131.99
  C 445.52 134.91 445.99 138.28 447.07 140.17
  A 0.75 0.75 0.0 0 0 447.89 140.52
  Q 456.26 138.46 457.97 138.21
  Q 483.70 134.44 500.52 134.06
  Q 512.86 133.79 537.74 133.98
  A 0.91 0.91 0.0 0 0 538.56 132.67
  Q 536.05 127.57 536.38 122.45
  A 3.70 3.69 -67.2 0 0 535.16 119.45
  Q 516.07 102.29 494.21 87.05
  Q 484.89 80.55 475.14 75.37
  Q 442.78 58.18 404.22 50.09
  Q 391.48 47.41 375.47 44.38
  Z
  M 310.50 45.10
  Q 309.97 45.04 309.00 45.20
  Q 282.93 49.42 264.64 53.40
  Q 244.53 57.78 227.72 65.46
  Q 207.96 74.50 187.63 87.89
  Q 167.02 101.46 148.91 120.03
  A 2.79 2.76 -28.3 0 0 148.16 122.49
  L 149.00 126.91
  A 0.98 0.98 0.0 0 1 149.00 127.25
  L 147.75 133.16
  A 0.54 0.53 -84.8 0 0 148.28 133.80
  C 154.85 133.69 161.03 133.26 167.07 133.39
  Q 200.88 134.11 206.76 134.52
  Q 209.71 134.72 217.76 135.64
  C 226.08 136.59 229.89 137.77 239.40 139.94
  A 0.76 0.76 0.0 0 0 240.31 139.39
  C 244.03 124.74 250.31 111.54 260.02 99.26
  Q 271.51 84.73 287.72 68.21
  Q 299.42 56.29 310.74 45.82
  A 0.42 0.42 0.0 0 0 310.50 45.10
  Z
  M 242.97 244.04
  Q 243.04 242.77 242.63 241.41
  Q 235.91 219.26 233.88 194.68
  Q 233.65 191.79 233.81 189.25
  Q 234.47 179.06 234.92 169.42
  C 235.18 163.80 236.42 157.26 236.87 152.66
  A 1.06 1.06 0.0 0 0 236.10 151.53
  Q 232.20 150.45 230.76 150.16
  Q 212.33 146.48 196.25 145.67
  Q 171.16 144.42 146.22 145.72
  A 0.75 0.75 0.0 0 0 145.52 146.42
  C 144.79 160.44 144.89 173.55 146.29 188.24
  Q 146.63 191.76 148.03 206.75
  Q 149.37 221.16 153.06 234.85
  C 153.49 236.44 153.33 238.65 155.76 238.46
  Q 167.74 237.52 177.94 237.13
  Q 200.54 236.26 223.95 240.83
  Q 232.92 242.58 242.10 244.69
  A 0.71 0.71 0.0 0 0 242.97 244.04
  Z
  M 450.13 153.35
  Q 450.68 156.60 451.82 163.40
  C 453.33 172.38 453.37 181.75 452.53 191.56
  Q 450.33 217.07 443.74 242.07
  A 1.43 1.43 0.0 0 0 444.94 243.86
  Q 446.34 244.04 447.52 243.82
  C 459.57 241.57 472.03 238.88 483.21 237.87
  Q 506.92 235.74 530.62 238.51
  A 1.04 1.04 0.0 0 0 531.71 237.85
  Q 535.89 227.17 537.61 215.46
  Q 539.24 204.45 540.68 190.11
  C 542.24 174.56 541.97 162.05 540.55 147.10
  A 0.70 0.69 -88.5 0 0 539.96 146.47
  Q 533.39 145.47 527.50 145.42
  C 499.69 145.17 475.49 144.87 450.65 152.52
  A 0.75 0.75 0.0 0 0 450.13 153.35
  Z
  M 633.39 306.66
  C 631.90 292.98 629.72 283.47 626.09 264.55
  Q 624.35 255.50 621.82 248.48
  C 614.24 227.46 606.13 207.80 594.96 189.74
  Q 580.50 166.39 562.33 146.87
  A 2.03 2.03 0.0 0 0 559.82 146.50
  Q 557.34 147.95 553.83 147.77
  A 0.88 0.88 0.0 0 0 552.91 148.72
  Q 554.30 165.58 553.27 183.60
  C 552.18 202.64 549.85 221.39 543.83 239.34
  A 0.95 0.95 0.0 0 0 544.45 240.56
  Q 571.93 248.91 594.12 267.91
  Q 614.75 285.58 632.46 307.05
  A 0.53 0.53 0.0 0 0 633.39 306.66
  Z
  M 52.56 306.36
  A 0.33 0.32 -17.4 0 0 53.10 306.64
  Q 54.89 305.04 55.91 303.91
  Q 67.56 291.01 86.49 272.49
  Q 109.82 249.66 141.76 240.39
  A 0.99 0.98 74.2 0 0 142.43 239.18
  Q 138.54 224.99 136.84 210.48
  Q 134.11 187.26 133.09 170.75
  C 132.80 166.11 132.57 158.98 133.41 153.38
  Q 133.92 150.00 133.99 147.61
  A 0.74 0.73 81.5 0 0 133.02 146.89
  Q 128.48 148.44 125.08 147.40
  A 2.52 2.52 0.0 0 0 122.43 148.18
  Q 110.44 162.16 100.39 175.64
  C 88.33 191.83 78.63 210.27 71.10 228.04
  Q 61.80 249.99 57.76 272.98
  Q 54.43 291.90 52.56 306.36
  Z
  M 248.22 156.92
  A 0.60 0.60 0.0 0 0 247.36 157.35
  C 242.93 182.55 245.05 207.96 250.99 233.44
  A 0.73 0.73 0.0 0 0 252.22 233.79
  L 292.34 193.66
  A 0.92 0.91 -44.1 0 0 292.37 192.39
  C 279.15 178.11 265.48 165.79 248.22 156.92
  Z
  M 435.14 233.51
  Q 439.93 210.48 441.57 188.73
  Q 442.72 173.55 439.71 157.57
  A 0.54 0.53 73.8 0 0 438.99 157.17
  Q 418.62 165.24 401.71 180.19
  Q 399.76 181.92 391.33 190.17
  A 0.65 0.65 0.0 0 0 391.33 191.09
  L 434.07 233.83
  A 0.64 0.63 -61.6 0 0 435.14 233.51
  Z
  M 342.74 160.40
  A 0.63 0.63 0.0 0 0 341.87 160.40
  L 307.39 194.08
  A 0.63 0.63 0.0 0 0 307.38 194.98
  L 340.49 228.09
  A 0.63 0.63 0.0 0 0 341.40 228.07
  L 374.70 191.45
  A 0.63 0.63 0.0 0 0 374.67 190.57
  L 342.74 160.40
  Z
  M 369.81 256.06
  A 1.12 1.10 -37.9 0 0 371.17 256.22
  Q 383.02 249.03 397.28 248.04
  Q 411.96 247.02 429.56 247.64
  A 1.30 1.29 68.5 0 0 430.52 245.43
  L 384.48 199.39
  A 1.25 1.25 0.0 0 0 382.67 199.44
  L 350.26 235.07
  A 1.08 1.07 43.8 0 0 350.30 236.55
  L 369.81 256.06
  Z
  M 255.45 246.03
  A 0.92 0.92 0.0 0 0 256.09 247.60
  Q 274.48 247.63 281.50 247.67
  C 293.05 247.73 302.76 250.88 312.68 256.32
  A 1.19 1.18 -53.1 0 0 314.09 256.12
  L 333.35 236.86
  A 1.01 0.99 43.8 0 0 333.31 235.42
  C 321.63 224.83 310.19 214.05 300.38 202.18
  A 0.71 0.71 0.0 0 0 299.34 202.13
  L 255.45 246.03
  Z
  M 341.50 284.68
  Q 342.03 284.68 342.37 284.10
  Q 349.35 272.25 359.64 263.30
  A 1.04 1.04 0.0 0 0 359.70 261.79
  Q 351.52 253.36 343.15 244.90
  Q 342.34 244.08 341.58 244.08
  Q 340.81 244.08 340.00 244.89
  Q 331.60 253.32 323.39 261.72
  A 1.04 1.04 0.0 0 0 323.44 263.23
  Q 333.70 272.22 340.63 284.10
  Q 340.97 284.68 341.50 284.68
  Z
  M 231.55 253.37
  C 227.67 252.20 223.28 251.66 219.79 251.09
  Q 204.07 248.52 189.24 247.68
  C 178.66 247.08 170.19 248.05 157.29 248.78
  A 0.22 0.22 0.0 0 0 157.10 249.07
  Q 167.40 276.31 187.77 296.34
  A 0.91 0.90 44.8 0 0 189.04 296.34
  L 231.64 253.73
  A 0.22 0.21 -59.4 0 0 231.55 253.37
  Z
  M 527.52 249.25
  Q 502.17 245.92 477.04 249.42
  Q 461.49 251.59 453.93 253.03
  A 0.40 0.39 -27.5 0 0 453.72 253.69
  L 495.17 296.11
  A 0.79 0.78 -46.6 0 0 496.34 296.07
  C 501.05 290.49 507.02 284.39 511.61 278.08
  Q 520.61 265.69 527.97 250.07
  A 0.58 0.58 0.0 0 0 527.52 249.25
  Z
  M 181.29 303.64
  C 165.12 289.46 153.21 272.27 146.52 251.88
  A 0.87 0.87 0.0 0 0 145.50 251.31
  Q 139.27 252.81 133.25 255.51
  Q 114.99 263.70 99.66 277.17
  Q 89.78 285.87 81.03 295.28
  Q 60.22 317.68 38.23 342.78
  A 0.48 0.48 0.0 0 0 38.24 343.42
  Q 65.58 373.55 75.90 384.88
  C 85.78 395.71 98.73 409.91 112.35 419.66
  Q 127.73 430.66 145.92 435.61
  A 1.14 1.13 -68.1 0 0 147.22 435.05
  Q 157.65 415.52 172.44 398.68
  Q 179.32 390.84 184.34 385.36
  A 1.55 1.54 43.0 0 0 184.26 383.19
  L 152.92 353.58
  A 1.13 1.06 -15.0 0 0 152.42 353.31
  C 150.02 352.71 146.83 352.29 145.09 350.58
  Q 142.55 348.11 142.58 343.52
  C 142.61 336.36 145.99 333.90 152.09 332.56
  A 5.49 5.45 -73.4 0 0 154.80 331.08
  L 181.32 304.56
  A 0.63 0.63 0.0 0 0 181.29 303.64
  Z
  M 501.53 384.89
  A 0.57 0.57 0.0 0 0 501.54 385.69
  Q 516.58 400.82 527.96 417.53
  C 532.23 423.79 535.27 429.59 538.86 436.33
  A 1.06 1.06 0.0 0 0 540.12 436.84
  Q 563.06 429.53 581.10 413.60
  Q 593.37 402.78 603.74 391.74
  Q 626.16 367.89 647.45 344.39
  A 1.19 1.18 -40.0 0 0 647.58 342.96
  Q 646.95 341.93 645.49 340.21
  Q 622.06 312.48 599.70 288.77
  C 583.11 271.17 563.20 257.53 540.17 251.67
  A 1.27 1.27 0.0 0 0 538.71 252.35
  Q 537.38 255.14 535.29 259.83
  Q 526.46 279.65 510.97 294.97
  Q 510.78 295.15 503.49 302.25
  A 1.09 1.09 0.0 0 0 503.49 303.81
  Q 517.75 317.63 528.86 330.06
  Q 532.29 333.90 535.77 334.53
  Q 538.85 335.08 540.11 335.94
  C 544.95 339.26 544.11 346.43 540.91 350.69
  A 2.22 2.17 -82.2 0 1 539.97 351.42
  L 534.18 353.80
  A 2.61 2.41 11.2 0 0 533.48 354.23
  Q 516.85 368.89 501.53 384.89
  Z
  M 440.85 255.75
  A 0.69 0.68 21.3 0 0 439.67 256.26
  Q 440.75 276.84 439.78 296.75
  C 439.38 305.01 437.01 310.49 433.30 317.65
  A 0.85 0.84 -54.1 0 0 433.45 318.63
  L 450.57 335.75
  A 1.56 1.56 0.0 0 0 452.74 335.78
  L 486.81 303.35
  A 0.38 0.37 46.6 0 0 486.82 302.81
  L 440.85 255.75
  Z
  M 244.87 256.16
  L 198.16 302.87
  A 1.26 1.26 0.0 0 0 198.19 304.68
  L 232.00 336.63
  A 0.71 0.61 69.7 0 0 232.29 336.79
  C 234.21 337.35 235.30 335.92 236.61 334.66
  Q 243.27 328.25 250.03 320.69
  C 251.02 319.58 252.41 318.24 251.78 316.73
  C 244.73 299.95 245.06 284.80 245.87 264.94
  Q 246.04 260.56 245.67 256.46
  A 0.47 0.47 0.0 0 0 244.87 256.16
  Z
  M 256.58 259.83
  C 257.99 276.27 253.73 292.85 261.26 307.62
  A 0.73 0.73 0.0 0 0 262.42 307.81
  L 304.65 265.57
  A 0.96 0.96 0.0 0 0 304.37 264.02
  Q 293.18 258.95 280.75 258.73
  Q 276.25 258.64 257.24 259.09
  A 0.68 0.68 0.0 0 0 256.58 259.83
  Z
  M 424.45 309.53
  C 428.56 301.94 430.07 292.23 429.68 283.74
  Q 429.06 270.53 429.42 259.65
  A 0.57 0.57 0.0 0 0 428.88 259.06
  Q 415.39 258.30 400.68 259.18
  Q 390.93 259.76 379.82 263.80
  A 0.84 0.84 0.0 0 0 379.52 265.18
  L 423.95 309.61
  A 0.32 0.31 -53.7 0 0 424.45 309.53
  Z
  M 296.92 344.24
  A 0.59 0.58 -44.2 0 1 296.90 345.19
  Q 280.93 356.29 268.95 369.19
  Q 267.75 370.49 268.12 371.98
  A 1.16 1.15 15.1 0 0 268.42 372.50
  L 315.05 419.13
  A 1.12 1.10 46.1 0 0 316.59 419.17
  Q 331.51 405.46 341.58 388.98
  A 0.69 0.69 0.0 0 1 342.72 388.94
  Q 354.43 405.30 369.42 418.59
  A 0.76 0.75 -46.4 0 0 370.46 418.56
  Q 384.08 404.96 414.66 374.26
  C 416.54 372.38 417.93 371.72 415.91 369.39
  C 407.95 360.20 399.22 353.35 389.68 345.79
  A 0.96 0.95 47.0 0 1 389.73 344.25
  Q 404.69 334.11 416.85 319.75
  A 1.55 1.55 0.0 0 0 416.76 317.65
  L 370.35 271.23
  A 1.24 1.24 0.0 0 0 368.65 271.19
  Q 353.52 284.76 342.12 300.92
  A 0.57 0.57 0.0 0 1 341.18 300.92
  Q 330.40 285.32 315.66 271.69
  A 0.84 0.84 0.0 0 0 314.51 271.69
  Q 300.16 285.25 298.32 286.95
  C 287.65 296.80 280.37 304.66 267.98 317.09
  A 0.90 0.89 -39.5 0 0 267.87 318.19
  Q 268.83 319.68 269.88 320.88
  Q 278.68 330.88 290.92 339.82
  Q 295.63 343.26 296.92 344.24
  Z
  M 492.67 377.74
  A 0.71 0.71 0.0 0 0 493.69 377.73
  L 524.97 344.63
  A 0.71 0.71 0.0 0 0 524.98 343.66
  L 495.75 311.50
  A 0.71 0.71 0.0 0 0 494.73 311.46
  L 460.25 344.29
  A 0.71 0.71 0.0 0 0 460.23 345.30
  L 492.67 377.74
  Z
  M 224.95 345.85
  A 0.82 0.82 0.0 0 0 224.94 344.66
  L 190.20 311.84
  A 0.82 0.82 0.0 0 0 189.03 311.89
  L 160.30 343.48
  A 0.82 0.82 0.0 0 0 160.32 344.60
  L 191.93 376.96
  A 0.82 0.82 0.0 0 0 193.09 376.98
  L 224.95 345.85
  Z
  M 241.40 344.83
  Q 241.40 344.86 241.43 344.89
  Q 249.61 353.63 259.31 362.93
  A 0.60 0.60 0.0 0 0 260.17 362.91
  C 264.41 358.30 267.94 353.96 272.55 350.21
  Q 278.03 345.76 278.86 344.91
  A 0.18 0.04 -86.3 0 0 278.90 344.77
  Q 278.91 344.74 278.91 344.70
  Q 278.91 344.66 278.90 344.63
  A 0.18 0.04 85.9 0 0 278.86 344.49
  Q 278.02 343.64 272.51 339.23
  C 267.87 335.52 264.31 331.20 260.04 326.62
  A 0.60 0.60 0.0 0 0 259.18 326.61
  Q 249.55 335.98 241.43 344.77
  Q 241.40 344.81 241.40 344.83
  Z
  M 424.65 362.59
  A 0.36 0.36 0.0 0 0 425.19 362.62
  Q 435.74 352.19 441.31 346.62
  C 442.89 345.04 444.66 343.80 442.60 341.92
  Q 433.93 334.02 426.09 326.93
  A 0.71 0.70 -49.4 0 0 425.07 327.01
  Q 417.15 336.60 406.39 344.08
  A 0.71 0.70 -43.7 0 0 406.36 345.21
  C 412.56 350.01 419.39 355.70 424.65 362.59
  Z
  M 441.37 430.36
  L 485.30 386.44
  A 0.63 0.63 0.0 0 0 485.30 385.56
  L 452.44 352.70
  A 0.93 0.92 46.9 0 0 451.19 352.65
  Q 441.69 360.84 433.38 370.45
  A 1.49 1.49 0.0 0 0 433.22 372.18
  Q 439.48 382.72 440.10 395.26
  Q 440.86 410.91 440.03 429.78
  A 0.79 0.78 -21.4 0 0 441.37 430.36
  Z
  M 244.83 431.70
  Q 245.15 430.62 245.15 429.50
  Q 245.13 404.89 245.26 399.52
  Q 245.59 384.80 252.80 372.89
  A 1.10 1.10 0.0 0 0 252.64 371.54
  L 234.40 353.31
  A 1.43 1.43 0.0 0 0 232.38 353.31
  L 201.15 384.53
  A 1.23 1.22 -42.0 0 0 201.06 386.16
  Q 202.27 387.70 203.65 389.10
  Q 223.08 408.83 237.46 424.13
  Q 241.41 428.34 244.09 431.83
  A 0.42 0.42 0.0 0 0 244.83 431.70
  Z
  M 132.33 538.37
  A 0.53 0.53 0.0 0 0 133.10 537.89
  Q 132.91 529.63 132.40 523.26
  Q 131.87 516.61 132.30 508.74
  Q 132.93 497.40 133.23 494.25
  Q 135.43 470.82 141.85 448.45
  A 1.10 1.09 18.0 0 0 141.16 447.11
  Q 114.03 437.57 92.22 418.02
  Q 84.02 410.68 73.91 400.10
  Q 63.41 389.12 52.46 376.97
  A 0.43 0.43 0.0 0 0 51.71 377.31
  Q 54.05 397.72 58.66 417.41
  Q 74.71 485.88 123.21 536.63
  A 2.33 2.33 0.0 0 0 125.37 537.31
  Q 128.87 536.59 132.33 538.37
  Z
  M 553.13 537.84
  Q 556.85 537.11 560.37 537.62
  A 1.11 1.10 24.0 0 0 561.40 537.23
  Q 571.61 524.91 583.34 510.58
  Q 596.04 495.07 605.20 477.25
  Q 608.55 470.72 615.34 455.48
  Q 621.01 442.77 623.71 433.00
  Q 631.06 406.45 634.38 378.95
  A 0.48 0.47 -18.7 0 0 633.58 378.56
  Q 625.00 386.81 614.44 398.43
  Q 602.29 411.79 595.06 418.07
  Q 572.35 437.78 544.55 447.72
  A 1.04 1.04 0.0 0 0 543.88 448.94
  Q 545.29 455.30 547.04 462.48
  Q 548.02 466.48 548.39 469.37
  C 549.13 475.10 550.29 481.08 550.65 486.75
  C 551.38 498.28 552.19 504.66 552.17 514.10
  Q 552.11 536.51 552.19 537.17
  A 0.79 0.78 -9.1 0 0 553.13 537.84
  Z
  M 400.99 402.76
  Q 392.80 410.87 378.88 424.89
  Q 378.61 425.17 378.57 425.38
  Q 378.50 425.80 378.87 426.00
  Q 387.97 430.77 398.25 430.98
  Q 417.63 431.36 428.50 431.46
  Q 428.86 431.46 429.15 431.17
  Q 429.45 430.88 429.45 430.52
  Q 429.45 419.65 429.24 400.27
  Q 429.12 389.98 424.43 380.84
  Q 424.24 380.47 423.81 380.54
  Q 423.60 380.57 423.32 380.85
  Q 409.18 394.64 400.99 402.76
  Z
  M 261.44 380.99
  Q 258.87 387.00 257.47 392.25
  C 256.19 397.08 256.00 401.47 256.15 406.00
  Q 256.58 419.31 256.14 431.59
  A 0.76 0.75 -0.7 0 0 256.94 432.37
  Q 267.65 431.73 283.12 431.36
  Q 295.33 431.06 306.12 426.00
  A 0.53 0.53 0.0 0 0 306.28 425.14
  L 262.02 380.88
  A 0.36 0.36 0.0 0 0 261.44 380.99
  Z
  M 158.20 439.03
  A 0.69 0.68 -72.9 0 0 158.72 440.02
  Q 167.91 441.23 176.42 442.10
  C 195.34 444.04 214.53 440.07 233.91 436.33
  A 0.58 0.57 76.3 0 0 234.35 435.60
  Q 234.18 435.07 233.94 434.84
  Q 210.09 412.23 193.20 393.05
  A 0.92 0.92 0.0 0 0 191.82 393.05
  C 178.54 408.10 166.83 421.75 158.20 439.03
  Z
  M 493.66 393.65
  A 0.79 0.79 0.0 0 0 492.54 393.65
  L 450.65 435.54
  A 0.59 0.59 0.0 0 0 450.96 436.54
  Q 469.65 439.86 481.51 441.43
  Q 492.67 442.91 497.93 442.60
  Q 510.53 441.84 518.23 441.42
  Q 521.89 441.22 526.75 440.41
  A 1.17 1.17 0.0 0 0 527.62 438.75
  C 519.41 421.27 507.33 407.07 493.66 393.65
  Z
  M 361.46 426.74
  Q 350.93 418.08 343.59 407.28
  A 0.77 0.76 46.2 0 0 342.34 407.25
  Q 334.41 417.99 324.43 427.13
  A 1.22 1.22 0.0 0 0 324.48 428.97
  Q 333.62 436.48 341.22 445.33
  A 1.76 1.76 0.0 0 0 343.87 445.36
  Q 352.20 435.99 361.47 428.03
  A 0.84 0.84 0.0 0 0 361.46 426.74
  Z
  M 255.84 443.19
  Q 275.75 464.12 297.76 484.73
  Q 299.02 485.91 301.19 487.66
  A 1.10 1.09 -47.9 0 0 302.65 487.58
  L 334.83 455.40
  A 1.29 1.29 0.0 0 0 334.83 453.58
  L 315.73 434.49
  A 1.18 1.16 51.9 0 0 314.30 434.31
  Q 303.57 440.77 290.54 441.79
  Q 273.57 443.11 256.11 442.56
  A 0.38 0.37 68.9 0 0 255.84 443.19
  Z
  M 428.77 442.41
  A 0.55 0.55 0.0 0 0 428.21 441.89
  Q 416.85 442.21 404.00 442.31
  Q 386.12 442.45 370.97 434.71
  A 1.73 1.72 36.0 0 0 368.98 435.02
  L 351.25 452.76
  A 0.79 0.79 0.0 0 0 351.25 453.88
  Q 363.52 465.93 373.43 475.96
  C 376.50 479.06 379.75 482.88 382.62 486.14
  A 1.21 1.21 0.0 0 0 384.34 486.24
  C 399.86 472.43 414.13 457.46 428.66 442.66
  Q 428.78 442.53 428.77 442.41
  Z
  M 539.97 539.85
  Q 543.79 496.39 532.59 452.66
  A 1.84 1.83 -9.4 0 0 530.67 451.29
  Q 527.76 451.53 519.39 452.34
  Q 514.86 452.77 496.39 453.21
  C 490.14 453.36 484.73 452.32 477.93 451.68
  C 468.65 450.79 457.24 448.52 449.71 447.01
  Q 449.13 446.89 444.27 445.52
  A 0.84 0.83 -0.2 0 0 443.24 446.55
  Q 449.59 468.71 451.59 491.88
  C 452.86 506.62 451.02 518.88 449.36 534.69
  A 0.73 0.73 0.0 0 0 449.80 535.44
  C 459.98 539.83 470.86 542.78 481.68 543.39
  Q 491.35 543.94 497.01 544.20
  Q 517.48 545.12 538.90 541.03
  A 1.33 1.32 -2.9 0 0 539.97 539.85
  Z
  M 236.60 534.40
  Q 232.91 516.44 234.07 497.25
  Q 235.59 471.99 241.76 447.81
  A 0.89 0.89 0.0 0 0 240.72 446.72
  Q 227.74 449.46 224.74 449.90
  Q 215.73 451.20 203.94 452.20
  Q 187.83 453.57 183.06 453.63
  Q 168.70 453.82 154.33 450.68
  A 1.37 1.37 0.0 0 0 152.74 451.58
  Q 147.75 466.65 146.26 483.00
  Q 145.07 496.09 144.26 508.50
  C 143.57 519.11 145.03 529.54 145.53 540.21
  Q 145.61 541.98 146.80 542.84
  A 1.49 1.47 64.5 0 0 147.63 543.14
  Q 164.39 544.21 174.75 543.90
  Q 188.51 543.48 212.26 541.52
  Q 225.11 540.45 236.20 535.20
  A 0.73 0.72 71.9 0 0 236.60 534.40
  Z
  M 434.19 453.64
  A 0.79 0.78 60.9 0 0 432.87 453.26
  Q 415.16 471.36 399.94 486.13
  C 397.41 488.59 393.97 491.35 391.40 493.78
  A 0.93 0.92 -42.5 0 0 391.34 495.07
  C 404.55 509.71 419.78 522.62 437.64 530.84
  A 0.54 0.54 0.0 0 0 438.40 530.45
  C 441.64 513.52 441.77 495.93 439.02 478.58
  Q 437.10 466.53 434.19 453.64
  Z
  M 251.00 454.02
  Q 244.43 481.99 245.09 510.24
  C 245.25 517.31 246.23 523.53 247.46 530.13
  A 0.53 0.53 0.0 0 0 248.23 530.50
  Q 256.66 525.96 263.49 520.98
  Q 279.92 508.99 293.84 495.30
  A 0.66 0.66 0.0 0 0 293.80 494.33
  Q 271.64 475.89 251.72 453.84
  A 0.42 0.42 0.0 0 0 251.00 454.02
  Z
  M 343.99 461.84
  A 0.60 0.60 0.0 0 0 343.15 461.84
  L 310.19 494.80
  A 0.60 0.60 0.0 0 0 310.22 495.66
  L 342.37 524.90
  A 0.60 0.60 0.0 0 0 343.18 524.90
  L 375.45 494.18
  A 0.60 0.60 0.0 0 0 375.47 493.33
  L 343.99 461.84
  Z
  M 342.23 656.56
  Q 362.96 635.75 381.24 618.49
  Q 390.55 609.70 402.92 596.94
  C 417.85 581.53 429.87 564.07 435.26 543.75
  A 1.76 1.76 0.0 0 0 434.21 541.66
  Q 415.62 534.19 401.09 520.40
  Q 392.35 512.11 383.99 502.65
  A 1.10 1.09 47.3 0 0 382.41 502.58
  L 354.77 529.22
  A 5.99 5.98 70.1 0 0 352.94 533.13
  C 352.49 538.35 352.63 542.31 348.39 546.02
  C 345.36 548.66 341.22 548.92 337.92 547.08
  Q 331.15 543.28 332.31 535.28
  Q 332.77 532.08 332.54 531.34
  A 1.54 1.51 13.4 0 0 332.10 530.64
  L 302.28 503.64
  A 1.67 1.67 0.0 0 0 299.95 503.73
  Q 283.63 520.82 265.46 533.96
  Q 262.91 535.81 251.15 543.04
  A 0.81 0.81 0.0 0 0 250.79 543.92
  C 254.88 560.76 263.92 575.00 274.69 588.57
  Q 282.43 598.31 294.70 610.34
  Q 314.05 629.30 329.14 643.39
  Q 334.64 648.51 341.62 656.54
  A 0.43 0.42 46.4 0 0 342.23 656.56
  Z
  M 536.40 553.54
  Q 504.95 558.42 472.73 553.67
  Q 459.66 551.75 447.79 547.74
  A 1.19 1.19 0.0 0 0 446.28 548.51
  C 440.80 565.67 433.49 581.05 421.19 594.44
  Q 409.72 606.92 406.32 610.33
  Q 394.89 621.75 374.42 641.38
  A 0.52 0.52 0.0 0 0 374.86 642.26
  Q 394.16 639.16 411.99 635.20
  Q 429.91 631.23 445.48 625.19
  Q 458.75 620.06 475.58 610.88
  C 494.34 600.64 511.44 587.48 527.60 573.09
  Q 531.31 569.79 534.87 565.88
  Q 536.56 564.03 536.29 561.93
  Q 535.79 558.20 537.05 554.29
  A 0.58 0.58 0.0 0 0 536.40 553.54
  Z
  M 310.79 641.04
  Q 307.67 638.10 287.54 619.23
  Q 274.14 606.68 262.55 592.47
  Q 246.67 573.00 240.42 549.03
  A 1.60 1.60 0.0 0 0 238.33 547.93
  Q 226.74 552.05 214.75 553.01
  Q 202.16 554.02 184.57 555.50
  C 176.99 556.13 170.37 555.84 162.28 555.84
  Q 156.01 555.84 149.16 554.69
  A 0.79 0.78 -0.5 0 0 148.26 555.60
  L 149.97 564.62
  A 2.67 2.66 15.4 0 0 150.84 566.14
  C 168.58 581.70 186.42 596.54 206.68 608.59
  C 237.03 626.66 272.08 636.08 306.35 641.62
  Q 308.49 641.97 310.45 641.91
  A 0.51 0.50 -23.9 0 0 310.79 641.04
  Z"
/>
<path fill="#F1F5F9" d="
  M 374.7075 375.4462
  A 1.26 1.26 0.0 0 1 373.4453 376.7040
  L 311.5054 376.5959
  A 1.26 1.26 0.0 0 1 310.2476 375.3337
  L 310.3525 315.2738
  A 1.26 1.26 0.0 0 1 311.6147 314.0160
  L 373.5546 314.1241
  A 1.26 1.26 0.0 0 1 374.8124 315.3863
  L 374.7075 375.4462
  Z
  M 363.84 325.88
  A 0.62 0.62 0.0 0 0 363.22 325.26
  L 321.62 325.26
  A 0.62 0.62 0.0 0 0 321.00 325.88
  L 321.00 365.12
  A 0.62 0.62 0.0 0 0 321.62 365.74
  L 363.22 365.74
  A 0.62 0.62 0.0 0 0 363.84 365.12
  L 363.84 325.88
  Z"
/>
</svg>
