<?xml version="1.0" encoding="UTF-8" standalone="no"?>
<!DOCTYPE svg PUBLIC "-//W3C//DTD SVG 1.1//EN" "http://www.w3.org/Graphics/SVG/1.1/DTD/svg11.dtd">
<svg xmlns="http://www.w3.org/2000/svg" version="1.1" viewBox="0.00 0.00 1024.00 1024.00">
<g stroke-width="2.00" fill="none" stroke-linecap="butt">
<path stroke="#808080" vector-effect="non-scaling-stroke" d="
  M 230.47 503.02
  Q 241.23 513.62 242.67 514.87
  Q 247.42 519.02 248.12 526.22
  Q 250.65 552.51 257.56 578.95
  C 267.46 616.80 286.79 654.35 315.16 681.75
  A 1.16 1.15 -56.0 0 1 315.41 683.05
  Q 311.40 691.93 318.41 698.32
  C 322.82 702.33 326.35 702.20 332.10 701.64
  A 2.09 2.07 -31.9 0 1 333.43 701.94
  Q 334.52 702.61 335.72 703.86
  Q 348.51 717.25 362.08 727.04
  Q 387.59 745.44 416.49 757.05
  Q 424.14 760.12 437.48 763.76
  Q 466.96 771.80 489.78 774.96
  C 494.37 775.60 497.14 777.06 500.38 780.14
  Q 505.25 784.78 509.40 789.09
  Q 510.02 789.73 511.20 790.46
  A 1.49 1.49 0.0 0 0 512.98 790.30
  L 526.58 777.94
  A 6.15 6.08 -69.6 0 1 529.89 776.40
  C 559.33 772.47 587.26 766.91 613.61 755.12
  Q 630.31 747.64 646.45 738.16
  C 653.11 734.25 660.53 728.92 665.86 724.36
  Q 681.32 711.14 691.42 701.98
  A 0.96 0.95 -56.5 0 1 692.37 701.78
  Q 702.00 704.97 707.42 696.63
  Q 711.37 690.57 709.07 683.88
  A 1.18 1.17 56.0 0 1 709.29 682.73
  Q 714.11 676.98 723.61 665.07
  Q 732.24 654.25 737.15 646.81
  Q 765.85 603.24 773.70 549.69
  Q 776.66 529.50 777.09 523.78
  A 4.84 4.84 0.0 0 1 777.49 522.17
  Q 778.06 520.90 780.60 517.61
  Q 786.38 510.09 792.72 503.83
  A 1.05 1.05 0.0 0 0 792.72 502.33
  Q 785.14 494.89 778.80 487.23
  Q 777.03 485.09 776.80 483.19
  Q 774.85 466.82 773.53 457.74
  Q 770.16 434.57 762.26 410.19
  C 758.53 398.69 752.77 386.24 747.49 375.78
  Q 732.51 346.12 709.59 322.71
  A 1.45 1.45 0.0 0 1 709.25 321.22
  Q 712.37 311.95 704.57 305.90
  C 700.48 302.72 696.42 302.70 691.57 302.97
  A 2.43 2.43 0.0 0 1 689.66 302.22
  C 677.93 289.90 662.71 278.64 648.54 269.71
  Q 604.59 242.05 552.01 234.39
  Q 543.27 233.11 533.72 231.99
  C 530.37 231.59 526.12 230.32 524.21 228.52
  Q 517.25 221.93 515.08 219.93
  Q 513.69 218.65 511.83 218.19
  A 1.95 1.94 -58.9 0 0 510.06 218.63
  Q 504.77 223.34 500.71 227.00
  C 498.07 229.38 495.10 231.12 492.09 231.44
  Q 449.83 235.83 412.57 250.31
  Q 384.23 261.33 357.48 281.10
  C 348.91 287.43 344.18 292.96 334.55 303.06
  A 1.05 1.02 -64.5 0 1 333.68 303.38
  Q 333.29 303.34 331.77 302.96
  Q 324.70 301.23 319.01 306.60
  Q 313.13 312.16 315.65 320.63
  A 1.74 1.72 -35.2 0 1 315.38 322.16
  C 307.03 333.20 296.26 344.49 287.95 357.20
  Q 264.09 393.73 254.65 436.86
  Q 251.91 449.36 248.38 480.24
  C 248.12 482.48 247.56 485.32 246.12 487.12
  C 242.44 491.73 236.10 497.37 230.51 502.05
  A 0.66 0.65 -43.0 0 0 230.47 503.02"
/>
<path stroke="#808080" vector-effect="non-scaling-stroke" d="
  M 594.01 329.90
  Q 589.32 312.97 577.96 297.21
  Q 572.18 289.19 553.12 270.52
  Q 533.17 250.98 512.04 232.23
  A 0.80 0.79 44.2 0 0 510.96 232.24
  Q 488.16 253.72 464.08 278.58
  C 451.62 291.45 440.87 305.47 434.32 322.03
  Q 432.79 325.90 432.09 329.73
  A 0.68 0.68 0.0 0 0 432.43 330.45
  Q 448.54 339.33 458.64 349.13
  Q 466.68 356.92 474.10 365.53
  A 0.75 0.75 0.0 0 0 475.20 365.57
  L 502.54 338.23
  A 1.56 1.55 65.2 0 0 502.99 337.00
  L 502.50 331.74
  A 1.28 1.07 53.9 0 1 502.52 331.43
  Q 503.89 325.38 509.02 324.12
  C 514.20 322.83 521.96 325.16 521.65 332.01
  Q 521.57 333.70 520.87 337.55
  A 2.21 2.21 0.0 0 0 521.48 339.51
  L 545.64 363.66
  A 1.29 1.29 0.0 0 0 547.49 363.65
  Q 567.79 342.60 593.69 330.60
  A 0.59 0.59 0.0 0 0 594.01 329.90"
/>
<path stroke="#808080" vector-effect="non-scaling-stroke" d="
  M 540.49 243.32
  C 553.91 256.30 566.12 267.34 578.01 280.49
  Q 594.08 298.26 601.58 320.59
  C 602.13 322.21 602.49 324.43 603.13 326.12
  A 0.70 0.70 0.0 0 0 603.96 326.55
  C 614.44 323.75 624.86 322.90 637.18 321.66
  Q 643.51 321.03 651.35 320.95
  Q 672.48 320.73 682.28 320.94
  A 0.77 0.76 76.5 0 0 682.97 319.81
  Q 680.44 315.07 681.07 311.23
  A 3.32 3.31 25.9 0 0 680.02 308.22
  Q 664.02 293.72 645.91 281.06
  C 621.48 264.00 593.52 253.63 565.12 247.66
  Q 551.43 244.79 540.72 242.88
  A 0.26 0.26 0.0 0 0 540.49 243.32"
/>
<path stroke="#808080" vector-effect="non-scaling-stroke" d="
  M 342.61 320.72
  Q 353.98 320.04 368.05 320.49
  Q 393.13 321.28 393.46 321.30
  Q 408.29 322.19 421.88 326.06
  A 0.76 0.76 0.0 0 0 422.83 325.50
  Q 427.39 306.38 439.80 290.77
  C 453.40 273.68 468.65 258.61 484.32 243.96
  A 0.31 0.31 0.0 0 0 484.06 243.42
  Q 463.06 246.59 443.14 250.91
  C 434.33 252.82 424.34 255.96 416.45 259.20
  Q 408.09 262.63 391.52 271.79
  Q 365.73 286.06 344.40 307.42
  Q 343.82 308.01 342.52 309.84
  A 1.19 1.17 -38.9 0 0 342.39 310.96
  Q 344.06 315.00 342.07 319.97
  A 0.55 0.54 9.5 0 0 342.61 320.72"
/>
<path stroke="#808080" vector-effect="non-scaling-stroke" d="
  M 340.23 331.60
  C 339.55 344.30 339.51 355.73 340.88 368.22
  Q 341.34 372.48 342.34 384.22
  Q 343.55 398.41 347.31 411.15
  A 1.31 1.31 0.0 0 0 348.71 412.08
  Q 362.50 410.56 379.65 410.78
  C 394.69 410.98 409.71 414.07 424.37 417.44
  A 0.64 0.64 0.0 0 0 425.15 416.78
  Q 425.12 416.00 424.86 415.12
  Q 419.02 395.72 417.17 374.53
  C 416.71 369.27 417.59 364.07 417.69 358.82
  Q 417.91 347.89 419.73 337.69
  A 1.42 1.41 -78.0 0 0 418.68 336.07
  Q 403.62 332.36 387.99 331.36
  Q 364.11 329.85 340.58 331.25
  A 0.37 0.37 0.0 0 0 340.23 331.60"
/>
<path stroke="#808080" vector-effect="non-scaling-stroke" d="
  M 684.21 331.93
  Q 681.77 331.26 678.75 331.16
  Q 665.77 330.76 647.01 331.15
  C 633.63 331.42 619.24 332.84 606.56 337.12
  A 0.93 0.93 0.0 0 0 605.95 338.22
  C 608.19 347.94 609.10 358.19 608.28 368.99
  Q 606.50 392.56 600.42 415.27
  A 1.21 1.20 7.8 0 0 601.58 416.79
  Q 603.31 416.81 604.14 416.64
  Q 610.32 415.36 627.42 412.39
  Q 636.19 410.86 646.78 410.85
  C 657.55 410.84 664.67 410.66 671.22 411.53
  Q 674.24 411.93 676.17 412.05
  A 1.02 1.02 0.0 0 0 677.17 411.41
  Q 680.69 402.46 682.15 392.48
  Q 684.44 376.77 685.55 362.04
  Q 686.39 350.88 684.81 332.66
  A 0.84 0.84 0.0 0 0 684.21 331.93"
/>
<path stroke="#808080" vector-effect="non-scaling-stroke" d="
  M 765.87 471.79
  Q 764.28 458.08 760.61 441.70
  C 759.48 436.64 758.83 429.97 757.07 424.95
  C 750.28 405.55 742.69 386.14 732.10 369.37
  C 723.93 356.43 714.53 343.58 703.69 332.18
  A 1.57 1.56 -39.6 0 0 701.64 331.99
  Q 699.58 333.47 696.35 333.03
  A 0.64 0.62 1.1 0 0 695.63 333.71
  Q 697.50 352.05 694.98 377.27
  Q 692.89 398.23 687.69 413.02
  A 0.61 0.61 0.0 0 0 688.10 413.81
  C 708.88 419.70 726.19 431.68 741.56 446.64
  C 749.02 453.89 757.64 462.92 765.31 472.03
  A 0.32 0.32 0.0 0 0 765.87 471.79"
/>
<path stroke="#808080" vector-effect="non-scaling-stroke" d="
  M 259.51 471.51
  Q 261.15 470.10 263.36 467.61
  Q 271.78 458.10 289.18 441.21
  Q 309.73 421.28 337.07 413.56
  A 0.49 0.48 74.4 0 0 337.40 412.96
  Q 334.18 401.64 332.92 391.27
  Q 329.51 363.17 329.05 348.75
  Q 328.79 340.49 330.08 333.02
  A 0.68 0.68 0.0 0 0 329.15 332.28
  Q 325.43 333.85 322.11 332.73
  A 1.76 1.74 -59.6 0 0 320.23 333.23
  Q 313.93 340.30 305.25 351.47
  Q 296.56 362.64 291.70 370.76
  C 278.54 392.71 267.70 417.39 263.55 442.51
  Q 260.54 460.70 259.04 471.25
  A 0.29 0.29 0.0 0 0 259.51 471.51"
/>
<path stroke="#808080" vector-effect="non-scaling-stroke" d="
  M 429.07 341.24
  C 425.02 363.27 427.07 385.32 432.19 407.72
  A 0.58 0.58 0.0 0 0 433.17 408.00
  L 468.11 373.06
  A 0.87 0.86 -43.8 0 0 468.14 371.86
  C 456.74 359.47 444.94 348.60 429.60 340.97
  A 0.38 0.37 -71.9 0 0 429.07 341.24"
/>
<path stroke="#808080" vector-effect="non-scaling-stroke" d="
  M 591.99 408.05
  A 0.51 0.50 -61.3 0 0 592.84 407.80
  Q 596.98 388.33 598.41 369.38
  C 599.12 359.91 598.28 350.44 596.92 341.93
  A 0.85 0.84 -16.9 0 0 595.72 341.30
  C 588.44 344.70 580.39 348.58 573.83 353.22
  Q 563.35 360.65 554.48 370.13
  A 0.30 0.30 0.0 0 0 554.49 370.55
  L 591.99 408.05"
/>
<path stroke="#808080" vector-effect="non-scaling-stroke" d="
  M 512.12 344.05
  A 0.49 0.49 0.0 0 0 511.44 344.06
  L 481.42 373.43
  A 0.49 0.49 0.0 0 0 481.42 374.13
  L 510.30 403.01
  A 0.49 0.49 0.0 0 0 511.01 402.99
  L 540.02 371.03
  A 0.49 0.49 0.0 0 0 539.99 370.34
  L 512.12 344.05"
/>
<path stroke="#808080" vector-effect="non-scaling-stroke" d="
  M 518.54 410.07
  L 535.91 427.44
  A 0.76 0.76 0.0 0 0 536.85 427.55
  Q 546.13 421.78 558.28 420.48
  C 567.13 419.54 577.75 419.82 588.26 419.97
  A 0.91 0.91 0.0 0 0 588.91 418.42
  L 548.41 377.92
  A 0.82 0.81 -46.2 0 0 547.23 377.95
  L 518.52 409.56
  A 0.38 0.37 43.3 0 0 518.54 410.07"
/>
<path stroke="#808080" vector-effect="non-scaling-stroke" d="
  M 436.62 419.93
  Q 437.14 419.95 458.25 419.96
  Q 473.33 419.97 486.09 427.61
  A 0.80 0.79 37.6 0 0 487.05 427.49
  L 503.76 410.78
  A 0.98 0.98 0.0 0 0 503.74 409.38
  Q 491.79 398.10 489.79 396.18
  C 484.44 391.07 481.34 387.42 474.90 380.20
  A 0.23 0.23 0.0 0 0 474.57 380.19
  L 436.15 418.76
  A 0.69 0.69 0.0 0 0 436.62 419.93"
/>
<path stroke="#808080" vector-effect="non-scaling-stroke" d="
  M 511.11 452.40
  Q 511.51 452.40 511.77 451.95
  Q 517.86 441.38 527.06 433.57
  A 0.62 0.62 0.0 0 0 527.11 432.67
  Q 520.37 425.61 512.56 417.74
  Q 512.03 417.20 511.39 417.07
  Q 511.30 417.05 511.22 417.05
  Q 511.13 417.05 511.04 417.07
  Q 510.40 417.20 509.87 417.73
  Q 502.02 425.56 495.23 432.58
  A 0.62 0.62 0.0 0 0 495.28 433.48
  Q 504.43 441.34 510.46 451.94
  Q 510.72 452.40 511.11 452.40"
/>
<path stroke="#808080" vector-effect="non-scaling-stroke" d="
  M 350.34 421.73
  Q 355.55 433.79 358.57 438.91
  Q 366.35 452.11 377.14 462.64
  A 0.59 0.58 -45.3 0 0 377.96 462.63
  L 415.09 425.50
  A 0.33 0.33 0.0 0 0 414.93 424.95
  Q 408.53 423.54 401.09 422.55
  C 389.39 420.99 379.33 419.78 368.25 420.10
  Q 365.48 420.18 350.68 421.17
  A 0.40 0.40 0.0 0 0 350.34 421.73"
/>
<path stroke="#808080" vector-effect="non-scaling-stroke" d="
  M 609.04 425.32
  L 645.43 462.50
  A 0.41 0.41 0.0 0 0 646.05 462.47
  C 649.66 457.95 655.25 452.40 658.69 447.85
  Q 667.23 436.53 673.76 422.43
  A 0.74 0.74 0.0 0 0 673.16 421.38
  C 658.52 419.97 644.15 419.32 629.44 421.64
  Q 611.45 424.48 609.22 424.80
  A 0.31 0.31 0.0 0 0 609.04 425.32"
/>
<path stroke="#808080" vector-effect="non-scaling-stroke" d="
  M 246.58 503.63
  Q 255.17 512.97 255.22 513.02
  Q 256.44 514.49 281.26 541.74
  Q 293.76 555.47 302.92 563.60
  Q 319.24 578.09 340.44 584.10
  A 0.85 0.85 0.0 0 0 341.43 583.67
  C 349.72 567.56 361.15 553.81 373.80 540.41
  A 1.29 1.29 0.0 0 0 373.76 538.60
  L 347.70 513.35
  A 5.60 5.58 -11.4 0 0 346.04 512.25
  Q 345.53 512.09 343.78 511.80
  C 339.30 511.06 337.23 508.21 337.43 503.27
  C 337.65 498.05 339.83 495.53 344.34 494.48
  Q 347.12 493.83 347.25 493.74
  A 6.04 5.96 5.6 0 0 348.31 492.88
  L 371.16 469.76
  A 0.72 0.72 0.0 0 0 371.11 468.71
  Q 349.79 450.68 340.82 423.70
  A 0.57 0.56 -15.9 0 0 340.14 423.33
  C 329.71 425.91 319.41 431.70 310.54 437.74
  C 303.24 442.70 295.62 449.80 289.87 455.62
  C 276.38 469.28 265.30 482.26 246.58 503.07
  A 0.41 0.41 0.0 0 0 246.58 503.63"
/>
<path stroke="#808080" vector-effect="non-scaling-stroke" d="
  M 650.85 540.39
  C 663.61 553.56 675.38 567.89 683.40 584.60
  A 0.94 0.93 68.5 0 0 684.52 585.09
  Q 703.70 579.12 719.33 565.55
  Q 731.15 555.28 740.72 544.97
  Q 767.50 516.11 777.86 504.67
  A 1.56 1.56 0.0 0 0 777.89 502.62
  Q 759.87 481.54 740.80 460.64
  C 724.81 443.13 707.25 429.32 684.32 423.60
  A 0.90 0.89 -70.7 0 0 683.28 424.11
  C 678.77 434.55 673.80 444.59 666.88 452.89
  Q 660.69 460.32 652.53 467.78
  A 0.87 0.86 45.7 0 0 652.52 469.04
  Q 665.33 481.40 675.80 493.12
  C 677.69 495.23 678.73 495.49 681.53 495.97
  C 688.52 497.17 689.10 505.58 685.03 510.24
  A 1.94 1.92 -79.1 0 1 684.23 510.79
  L 680.01 512.36
  A 5.59 5.48 13.6 0 0 678.27 513.40
  Q 664.05 525.96 650.85 539.72
  A 0.49 0.48 45.4 0 0 650.85 540.39"
/>
<path stroke="#808080" vector-effect="non-scaling-stroke" d="
  M 597.01 427.22
  Q 596.82 428.08 596.88 429.01
  Q 598.02 445.28 596.92 463.94
  Q 596.40 472.71 591.52 480.59
  A 1.41 1.41 0.0 0 0 591.72 482.33
  L 606.36 496.97
  A 1.21 1.21 0.0 0 0 608.04 496.99
  L 637.55 468.96
  A 0.71 0.71 0.0 0 0 637.57 467.95
  L 597.56 427.06
  A 0.33 0.33 0.0 0 0 597.01 427.22"
/>
<path stroke="#808080" vector-effect="non-scaling-stroke" d="
  M 386.22 469.69
  Q 388.82 472.57 390.86 474.39
  Q 403.27 485.44 413.71 495.96
  Q 415.14 497.41 415.59 497.72
  Q 416.85 498.59 418.22 497.27
  Q 426.06 489.76 432.38 482.65
  A 2.23 2.23 0.0 0 0 432.75 480.27
  C 425.77 464.57 427.07 449.07 427.76 431.75
  Q 427.83 429.94 427.41 427.95
  A 0.41 0.40 -28.4 0 0 426.72 427.75
  L 386.26 468.21
  A 1.08 1.08 0.0 0 0 386.22 469.69"
/>
<path stroke="#808080" vector-effect="non-scaling-stroke" d="
  M 441.25 472.54
  A 0.40 0.40 0.0 0 0 441.89 472.64
  L 478.64 435.89
  A 1.01 1.00 -55.6 0 0 478.34 434.26
  Q 467.77 429.56 456.00 429.77
  Q 439.45 430.07 437.63 430.04
  A 0.57 0.56 -3.1 0 0 437.06 430.67
  Q 437.60 435.05 437.36 441.70
  C 436.92 453.75 436.28 462.98 441.25 472.54"
/>
<path stroke="#808080" vector-effect="non-scaling-stroke" d="
  M 587.33 430.01
  Q 575.12 429.59 564.25 430.04
  Q 554.29 430.44 544.72 434.22
  A 0.78 0.78 0.0 0 0 544.45 435.49
  L 582.75 473.79
  A 0.65 0.65 0.0 0 0 583.79 473.62
  C 590.81 459.72 586.60 446.16 587.82 430.55
  A 0.51 0.50 3.3 0 0 587.33 430.01"
/>
<path stroke="#808080" vector-effect="non-scaling-stroke" d="
  M 472.45 504.33
  A 0.38 0.38 0.0 0 1 472.46 504.95
  C 463.43 511.56 454.43 518.60 447.41 526.70
  A 1.70 1.69 43.0 0 0 447.50 529.01
  L 488.14 569.65
  A 0.88 0.87 46.7 0 0 489.35 569.69
  Q 502.16 558.10 511.19 543.31
  A 0.62 0.62 0.0 0 1 512.22 543.28
  Q 522.28 557.49 535.36 569.07
  A 0.78 0.77 43.0 0 0 536.42 569.04
  L 576.54 528.92
  A 1.35 1.34 48.2 0 0 576.64 527.13
  C 569.91 518.71 561.80 512.71 553.28 505.98
  A 1.10 1.09 -42.8 0 1 553.35 504.21
  Q 566.36 495.38 576.83 483.01
  A 1.32 1.31 -47.5 0 0 576.76 481.23
  L 536.03 440.50
  A 0.70 0.69 -43.1 0 0 535.08 440.47
  Q 522.10 451.88 511.71 466.65
  A 0.54 0.54 0.0 0 1 510.82 466.64
  Q 501.45 452.91 488.47 441.07
  A 0.59 0.57 45.0 0 0 487.68 441.06
  Q 466.86 460.05 447.18 480.54
  A 1.17 1.17 0.0 0 0 447.11 482.08
  C 453.98 490.61 463.57 498.23 472.45 504.33"
/>
<path stroke="#808080" vector-effect="non-scaling-stroke" d="
  M 352.89 503.97
  A 0.34 0.34 0.0 0 0 352.89 504.44
  L 380.90 533.06
  A 0.34 0.34 0.0 0 0 381.38 533.06
  L 409.61 505.44
  A 0.34 0.34 0.0 0 0 409.60 504.95
  L 378.82 475.92
  A 0.34 0.34 0.0 0 0 378.34 475.94
  L 352.89 503.97"
/>
<path stroke="#808080" vector-effect="non-scaling-stroke" d="
  M 643.28 533.68
  A 0.33 0.33 0.0 0 0 643.75 533.67
  L 671.28 504.49
  A 0.33 0.33 0.0 0 0 671.28 504.04
  L 645.52 475.70
  A 0.33 0.33 0.0 0 0 645.05 475.68
  L 614.64 504.56
  A 0.33 0.33 0.0 0 0 614.63 505.03
  L 643.28 533.68"
/>
<path stroke="#808080" vector-effect="non-scaling-stroke" d="
  M 423.93 504.94
  C 423.93 505.47 431.81 513.07 439.33 520.60
  A 0.63 0.63 0.0 0 0 440.27 520.55
  Q 447.40 511.56 456.35 505.09
  Q 456.43 505.03 456.43 504.80
  Q 456.43 504.57 456.35 504.51
  Q 447.34 498.12 440.13 489.19
  A 0.63 0.63 0.0 0 0 439.20 489.15
  C 431.74 496.75 423.93 504.41 423.93 504.94"
/>
<path stroke="#808080" vector-effect="non-scaling-stroke" d="
  M 567.68 505.13
  C 573.65 509.94 578.96 513.86 583.53 520.07
  A 0.59 0.59 0.0 0 0 584.42 520.14
  L 599.64 504.92
  A 1.57 1.56 43.5 0 0 599.58 502.66
  L 584.70 489.14
  A 0.28 0.28 0.0 0 0 584.30 489.17
  Q 577.64 497.45 567.70 504.38
  A 0.47 0.47 0.0 0 0 567.68 505.13"
/>
<path stroke="#808080" vector-effect="non-scaling-stroke" d="
  M 597.42 579.53
  A 0.30 0.30 0.0 0 0 597.93 579.68
  L 636.52 541.10
  A 0.55 0.54 -45.4 0 0 636.52 540.33
  L 608.12 511.94
  A 1.07 1.07 0.0 0 0 606.67 511.88
  Q 598.70 518.73 591.41 527.12
  A 1.32 1.32 0.0 0 0 591.26 528.67
  Q 596.11 536.85 597.06 546.42
  C 597.97 555.48 597.58 567.39 597.26 577.75
  Q 597.24 578.67 597.42 579.53"
/>
<path stroke="#808080" vector-effect="non-scaling-stroke" d="
  M 426.80 580.66
  Q 427.06 579.07 427.05 578.25
  Q 426.92 558.74 427.07 552.26
  Q 427.34 539.67 433.62 529.27
  A 0.94 0.94 0.0 0 0 433.48 528.12
  L 417.46 512.11
  A 0.88 0.88 0.0 0 0 416.22 512.11
  L 388.71 539.62
  A 1.07 1.07 0.0 0 0 388.71 541.13
  Q 407.28 559.99 420.19 573.73
  Q 423.96 577.73 426.26 580.80
  A 0.30 0.30 0.0 0 0 426.80 580.66"
/>
<path stroke="#808080" vector-effect="non-scaling-stroke" d="
  M 329.34 673.13
  Q 328.30 655.73 328.34 652.75
  Q 328.76 623.05 336.88 594.84
  A 0.47 0.46 18.4 0 0 336.59 594.27
  C 317.21 587.58 301.72 577.23 286.45 562.10
  Q 273.89 549.65 258.83 532.91
  A 0.33 0.33 0.0 0 0 258.26 533.17
  Q 260.13 550.20 264.39 568.36
  Q 278.45 628.17 320.75 672.22
  C 321.40 672.89 321.91 673.02 322.73 672.72
  C 324.44 672.09 326.75 672.75 328.64 673.61
  A 0.50 0.49 10.5 0 0 329.34 673.13"
/>
<path stroke="#808080" vector-effect="non-scaling-stroke" d="
  M 766.19 534.26
  Q 757.23 542.77 744.95 556.45
  Q 721.12 583.00 688.09 594.80
  A 0.64 0.63 73.1 0 0 687.69 595.56
  Q 692.06 611.25 693.43 625.42
  C 694.00 631.34 693.96 635.69 694.51 640.75
  Q 694.96 644.93 695.01 652.26
  Q 695.09 664.53 695.03 672.82
  A 0.42 0.42 0.0 0 0 695.56 673.23
  Q 699.04 672.23 701.78 672.97
  A 1.22 1.21 -62.2 0 0 703.02 672.58
  Q 722.69 648.93 728.68 640.94
  C 737.59 629.08 744.15 614.51 750.18 600.94
  Q 755.13 589.79 757.49 581.25
  C 761.29 567.46 764.84 550.42 766.64 534.49
  A 0.27 0.27 0.0 0 0 766.19 534.26"
/>
<path stroke="#808080" vector-effect="non-scaling-stroke" d="
  M 563.09 555.47
  Q 558.10 560.42 543.65 574.90
  A 0.48 0.48 0.0 0 0 543.76 575.66
  Q 551.55 579.82 560.25 579.97
  Q 566.69 580.08 587.17 580.34
  Q 587.35 580.35 587.40 580.31
  Q 587.51 580.24 587.60 580.16
  Q 587.69 580.07 587.76 579.96
  Q 587.80 579.91 587.79 579.73
  Q 587.67 559.24 587.61 552.80
  Q 587.52 544.10 583.42 536.28
  A 0.48 0.48 0.0 0 0 582.66 536.17
  Q 568.07 550.52 563.09 555.47"
/>
<path stroke="#808080" vector-effect="non-scaling-stroke" d="
  M 441.32 536.34
  Q 438.20 543.38 437.11 549.43
  Q 436.50 552.85 436.88 563.10
  Q 437.18 571.06 436.72 580.58
  A 0.61 0.61 0.0 0 0 437.37 581.22
  Q 447.20 580.47 459.50 580.33
  Q 470.60 580.20 480.25 575.67
  A 0.38 0.38 0.0 0 0 480.36 575.05
  L 441.60 536.29
  A 0.17 0.17 0.0 0 0 441.32 536.34"
/>
<path stroke="#808080" vector-effect="non-scaling-stroke" d="
  M 351.57 587.80
  Q 366.80 589.83 373.00 590.07
  C 387.77 590.64 403.41 587.09 417.28 584.64
  A 0.45 0.44 -27.6 0 0 417.52 583.89
  Q 403.77 570.31 392.80 559.22
  Q 386.85 553.21 381.59 546.84
  A 0.59 0.58 45.9 0 0 380.70 546.82
  C 369.15 559.97 358.12 572.45 351.23 587.18
  A 0.44 0.44 0.0 0 0 351.57 587.80"
/>
<path stroke="#808080" vector-effect="non-scaling-stroke" d="
  M 673.64 587.20
  C 667.10 572.21 655.21 558.49 643.66 547.45
  A 0.44 0.43 44.5 0 0 643.05 547.45
  L 606.46 584.04
  A 0.46 0.46 0.0 0 0 606.71 584.82
  Q 622.25 587.43 629.01 588.48
  Q 641.43 590.41 649.01 590.00
  Q 656.20 589.60 669.76 588.72
  Q 671.76 588.59 673.32 587.97
  A 0.58 0.58 0.0 0 0 673.64 587.20"
/>
<path stroke="#808080" vector-effect="non-scaling-stroke" d="
  M 528.45 576.29
  Q 519.17 568.80 512.82 559.27
  A 0.48 0.48 0.0 0 0 512.03 559.26
  Q 505.29 568.70 496.20 576.87
  A 0.79 0.78 43.2 0 0 496.24 578.07
  Q 504.01 584.28 511.14 592.58
  A 1.24 1.24 0.0 0 0 513.02 592.58
  Q 519.76 584.69 528.46 577.44
  A 0.75 0.75 0.0 0 0 528.45 576.29"
/>
<path stroke="#808080" vector-effect="non-scaling-stroke" d="
  M 436.29 590.54
  Q 456.83 612.02 475.57 629.20
  A 1.25 1.25 0.0 0 0 477.30 629.16
  L 505.34 601.13
  A 0.93 0.93 0.0 0 0 505.34 599.82
  L 488.88 583.36
  A 1.37 1.37 0.0 0 0 487.20 583.16
  C 476.04 589.87 465.98 589.87 451.99 590.26
  Q 443.05 590.50 436.44 590.21
  A 0.20 0.19 70.1 0 0 436.29 590.54"
/>
<path stroke="#808080" vector-effect="non-scaling-stroke" d="
  M 586.90 589.55
  C 568.79 590.05 551.50 591.71 536.97 583.30
  A 1.49 1.48 -52.2 0 0 535.18 583.53
  L 519.78 598.93
  A 0.76 0.76 0.0 0 0 519.79 600.00
  Q 529.05 608.94 539.56 619.69
  Q 543.80 624.03 547.22 628.22
  A 0.75 0.74 49.7 0 0 548.29 628.31
  C 561.88 616.56 575.17 602.07 587.18 590.19
  A 0.38 0.37 21.6 0 0 586.90 589.55"
/>
<path stroke="#808080" vector-effect="non-scaling-stroke" d="
  M 600.52 592.71
  A 0.57 0.57 0.0 0 0 599.91 593.44
  Q 605.43 611.63 607.37 633.98
  Q 608.15 643.00 607.24 651.52
  Q 605.98 663.43 605.35 670.62
  A 0.59 0.59 0.0 0 0 605.69 671.20
  Q 616.35 675.84 627.25 677.47
  Q 629.31 677.78 646.75 678.71
  C 659.64 679.40 672.48 678.01 683.60 675.93
  A 0.76 0.75 -3.1 0 0 684.21 675.26
  Q 686.03 655.62 684.24 636.65
  C 682.95 622.98 681.33 611.44 677.55 598.47
  A 0.90 0.89 -8.2 0 0 676.69 597.83
  C 671.63 597.85 666.56 599.02 661.52 599.01
  C 654.60 598.99 648.39 599.89 641.83 599.39
  Q 622.83 597.96 604.95 594.02
  C 603.34 593.66 601.97 592.86 600.52 592.71"
/>
<path stroke="#808080" vector-effect="non-scaling-stroke" d="
  M 423.31 593.81
  Q 411.03 596.96 396.58 598.14
  Q 377.11 599.75 377.00 599.75
  Q 362.60 600.64 347.45 597.21
  A 0.74 0.74 0.0 0 0 346.58 597.69
  C 341.12 613.94 340.65 626.51 339.08 647.53
  C 338.38 656.95 339.89 666.61 340.31 676.26
  A 1.62 1.62 0.0 0 0 341.84 677.81
  C 352.13 678.40 360.47 678.93 371.40 678.24
  Q 389.04 677.12 396.23 676.63
  Q 408.30 675.81 419.24 670.96
  A 0.43 0.43 0.0 0 0 419.49 670.48
  Q 416.13 652.94 417.37 635.97
  Q 418.92 614.75 424.03 594.53
  A 0.59 0.59 0.0 0 0 423.31 593.81"
/>
<path stroke="#808080" vector-effect="non-scaling-stroke" d="
  M 591.42 599.24
  Q 590.76 599.67 590.34 600.09
  Q 567.79 622.97 560.86 629.40
  C 558.71 631.40 556.54 633.02 554.59 634.91
  A 0.60 0.59 -44.0 0 0 554.57 635.74
  C 565.72 648.13 579.43 660.11 594.77 666.92
  A 0.73 0.73 0.0 0 0 595.79 666.38
  Q 599.74 644.59 596.39 622.88
  Q 594.71 612.00 591.86 599.42
  A 0.29 0.29 0.0 0 0 591.42 599.24"
/>
<path stroke="#808080" vector-effect="non-scaling-stroke" d="
  M 429.74 666.86
  C 444.52 658.86 456.69 648.15 469.62 636.06
  A 0.38 0.37 -46.4 0 0 469.61 635.50
  Q 450.73 619.95 432.63 599.95
  A 0.29 0.29 0.0 0 0 432.13 600.09
  Q 429.86 610.80 428.42 621.18
  Q 426.30 636.49 427.15 652.48
  C 427.41 657.28 428.31 661.76 429.12 666.55
  A 0.43 0.42 71.2 0 0 429.74 666.86"
/>
<path stroke="#808080" vector-effect="non-scaling-stroke" d="
  M 513.14 606.90
  A 0.34 0.34 0.0 0 0 512.66 606.90
  L 483.76 635.79
  A 0.34 0.34 0.0 0 0 483.77 636.28
  L 512.02 661.93
  A 0.34 0.34 0.0 0 0 512.48 661.92
  L 540.79 635.04
  A 0.34 0.34 0.0 0 0 540.79 634.55
  L 513.14 606.90"
/>
<path stroke="#808080" vector-effect="non-scaling-stroke" d="
  M 547.29 642.31
  Q 533.30 655.26 523.02 665.51
  Q 521.04 667.49 521.08 669.08
  C 521.21 674.03 520.59 678.06 516.54 681.00
  C 512.57 683.88 506.95 682.04 504.35 678.18
  C 502.41 675.31 502.75 671.91 503.36 668.33
  A 1.41 1.40 -64.3 0 0 502.92 667.07
  L 476.84 643.39
  A 1.24 1.23 -46.5 0 0 475.12 643.44
  C 462.19 656.68 448.58 668.75 432.52 677.71
  A 0.96 0.95 68.1 0 0 432.06 678.79
  Q 435.09 690.82 441.46 701.04
  Q 448.60 712.51 454.76 719.76
  Q 462.37 728.74 472.72 738.80
  Q 487.42 753.11 501.72 766.50
  C 505.18 769.75 508.47 773.77 511.19 776.54
  A 0.57 0.57 0.0 0 0 512.00 776.54
  C 519.38 769.05 528.95 759.40 538.23 750.72
  Q 546.74 742.76 559.28 730.28
  C 574.80 714.83 587.32 699.35 592.88 678.56
  A 1.65 1.65 0.0 0 0 591.89 676.60
  Q 576.24 670.40 564.03 659.00
  Q 556.19 651.68 547.88 642.34
  A 0.41 0.41 0.0 0 0 547.29 642.31"
/>
<path stroke="#808080" vector-effect="non-scaling-stroke" d="
  M 342.57 688.54
  L 344.10 696.73
  A 1.67 1.64 16.0 0 0 344.65 697.70
  Q 353.64 705.58 365.74 715.48
  Q 381.94 728.74 400.36 738.78
  Q 414.61 746.55 433.74 752.71
  Q 452.59 758.78 468.86 761.54
  C 474.49 762.49 478.83 763.67 483.76 764.06
  A 0.56 0.56 0.0 0 0 484.18 763.09
  C 468.89 748.80 454.97 736.75 442.20 721.04
  C 432.45 709.02 426.37 696.93 422.68 682.51
  A 0.66 0.65 76.6 0 0 421.91 682.03
  Q 420.51 682.33 414.25 684.21
  Q 408.58 685.91 400.57 686.55
  Q 386.93 687.63 373.25 688.77
  Q 369.51 689.08 352.71 688.96
  C 349.08 688.93 345.83 688.15 343.06 687.99
  A 0.47 0.47 0.0 0 0 342.57 688.54"
/>
<path stroke="#808080" vector-effect="non-scaling-stroke" d="
  M 540.19 764.19
  Q 540.67 764.26 541.37 764.13
  C 563.33 760.23 582.55 757.02 601.57 749.52
  Q 613.26 744.91 627.58 737.21
  C 644.05 728.34 659.65 716.23 673.59 703.84
  Q 677.02 700.78 680.60 696.60
  A 2.21 2.19 59.7 0 0 681.08 694.74
  Q 680.37 691.20 681.68 687.48
  A 0.42 0.42 0.0 0 0 681.21 686.93
  C 670.31 688.89 662.72 689.06 648.92 689.05
  C 633.66 689.03 617.86 686.67 603.76 681.90
  A 0.81 0.80 18.4 0 0 602.73 682.41
  C 599.76 691.40 596.55 699.70 591.70 708.07
  Q 587.82 714.75 580.53 722.83
  C 568.02 736.69 559.88 744.23 539.98 763.52
  A 0.39 0.39 0.0 0 0 540.19 764.19"
/>
<path stroke="#808080" vector-effect="non-scaling-stroke" d="
  M 540.1059 479.0190
  A 0.88 0.88 0.0 0 0 539.2275 478.1374
  L 484.9275 478.0427
  A 0.88 0.88 0.0 0 0 484.0460 478.9211
  L 483.9541 531.6010
  A 0.88 0.88 0.0 0 0 484.8325 532.4826
  L 539.1325 532.5773
  A 0.88 0.88 0.0 0 0 540.0140 531.6989
  L 540.1059 479.0190"
/>
<path stroke="#808080" vector-effect="non-scaling-stroke" d="
  M 530.53 488.31
  A 0.38 0.38 0.0 0 0 530.15 487.93
  L 493.58 487.93
  A 0.38 0.38 0.0 0 0 493.20 488.31
  L 493.20 522.62
  A 0.38 0.38 0.0 0 0 493.58 523.00
  L 530.15 523.00
  A 0.38 0.38 0.0 0 0 530.53 522.62
  L 530.53 488.31"
/>
</g>
<path fill="#ffffff" d="
  M 1024.00 0.00
  L 1024.00 1024.00
  L 0.00 1024.00
  L 0.00 0.00
  L 1024.00 0.00
  Z
  M 230.47 503.02
  Q 241.23 513.62 242.67 514.87
  Q 247.42 519.02 248.12 526.22
  Q 250.65 552.51 257.56 578.95
  C 267.46 616.80 286.79 654.35 315.16 681.75
  A 1.16 1.15 -56.0 0 1 315.41 683.05
  Q 311.40 691.93 318.41 698.32
  C 322.82 702.33 326.35 702.20 332.10 701.64
  A 2.09 2.07 -31.9 0 1 333.43 701.94
  Q 334.52 702.61 335.72 703.86
  Q 348.51 717.25 362.08 727.04
  Q 387.59 745.44 416.49 757.05
  Q 424.14 760.12 437.48 763.76
  Q 466.96 771.80 489.78 774.96
  C 494.37 775.60 497.14 777.06 500.38 780.14
  Q 505.25 784.78 509.40 789.09
  Q 510.02 789.73 511.20 790.46
  A 1.49 1.49 0.0 0 0 512.98 790.30
  L 526.58 777.94
  A 6.15 6.08 -69.6 0 1 529.89 776.40
  C 559.33 772.47 587.26 766.91 613.61 755.12
  Q 630.31 747.64 646.45 738.16
  C 653.11 734.25 660.53 728.92 665.86 724.36
  Q 681.32 711.14 691.42 701.98
  A 0.96 0.95 -56.5 0 1 692.37 701.78
  Q 702.00 704.97 707.42 696.63
  Q 711.37 690.57 709.07 683.88
  A 1.18 1.17 56.0 0 1 709.29 682.73
  Q 714.11 676.98 723.61 665.07
  Q 732.24 654.25 737.15 646.81
  Q 765.85 603.24 773.70 549.69
  Q 776.66 529.50 777.09 523.78
  A 4.84 4.84 0.0 0 1 777.49 522.17
  Q 778.06 520.90 780.60 517.61
  Q 786.38 510.09 792.72 503.83
  A 1.05 1.05 0.0 0 0 792.72 502.33
  Q 785.14 494.89 778.80 487.23
  Q 777.03 485.09 776.80 483.19
  Q 774.85 466.82 773.53 457.74
  Q 770.16 434.57 762.26 410.19
  C 758.53 398.69 752.77 386.24 747.49 375.78
  Q 732.51 346.12 709.59 322.71
  A 1.45 1.45 0.0 0 1 709.25 321.22
  Q 712.37 311.95 704.57 305.90
  C 700.48 302.72 696.42 302.70 691.57 302.97
  A 2.43 2.43 0.0 0 1 689.66 302.22
  C 677.93 289.90 662.71 278.64 648.54 269.71
  Q 604.59 242.05 552.01 234.39
  Q 543.27 233.11 533.72 231.99
  C 530.37 231.59 526.12 230.32 524.21 228.52
  Q 517.25 221.93 515.08 219.93
  Q 513.69 218.65 511.83 218.19
  A 1.95 1.94 -58.9 0 0 510.06 218.63
  Q 504.77 223.34 500.71 227.00
  C 498.07 229.38 495.10 231.12 492.09 231.44
  Q 449.83 235.83 412.57 250.31
  Q 384.23 261.33 357.48 281.10
  C 348.91 287.43 344.18 292.96 334.55 303.06
  A 1.05 1.02 -64.5 0 1 333.68 303.38
  Q 333.29 303.34 331.77 302.96
  Q 324.70 301.23 319.01 306.60
  Q 313.13 312.16 315.65 320.63
  A 1.74 1.72 -35.2 0 1 315.38 322.16
  C 307.03 333.20 296.26 344.49 287.95 357.20
  Q 264.09 393.73 254.65 436.86
  Q 251.91 449.36 248.38 480.24
  C 248.12 482.48 247.56 485.32 246.12 487.12
  C 242.44 491.73 236.10 497.37 230.51 502.05
  A 0.66 0.65 -43.0 0 0 230.47 503.02
  Z"
/>
<path fill="#000000" d="
  M 230.51 502.05
  C 236.10 497.37 242.44 491.73 246.12 487.12
  C 247.56 485.32 248.12 482.48 248.38 480.24
  Q 251.91 449.36 254.65 436.86
  Q 264.09 393.73 287.95 357.20
  C 296.26 344.49 307.03 333.20 315.38 322.16
  A 1.74 1.72 -35.2 0 0 315.65 320.63
  Q 313.13 312.16 319.01 306.60
  Q 324.70 301.23 331.77 302.96
  Q 333.29 303.34 333.68 303.38
  A 1.05 1.02 -64.5 0 0 334.55 303.06
  C 344.18 292.96 348.91 287.43 357.48 281.10
  Q 384.23 261.33 412.57 250.31
  Q 449.83 235.83 492.09 231.44
  C 495.10 231.12 498.07 229.38 500.71 227.00
  Q 504.77 223.34 510.06 218.63
  A 1.95 1.94 -58.9 0 1 511.83 218.19
  Q 513.69 218.65 515.08 219.93
  Q 517.25 221.93 524.21 228.52
  C 526.12 230.32 530.37 231.59 533.72 231.99
  Q 543.27 233.11 552.01 234.39
  Q 604.59 242.05 648.54 269.71
  C 662.71 278.64 677.93 289.90 689.66 302.22
  A 2.43 2.43 0.0 0 0 691.57 302.97
  C 696.42 302.70 700.48 302.72 704.57 305.90
  Q 712.37 311.95 709.25 321.22
  A 1.45 1.45 0.0 0 0 709.59 322.71
  Q 732.51 346.12 747.49 375.78
  C 752.77 386.24 758.53 398.69 762.26 410.19
  Q 770.16 434.57 773.53 457.74
  Q 774.85 466.82 776.80 483.19
  Q 777.03 485.09 778.80 487.23
  Q 785.14 494.89 792.72 502.33
  A 1.05 1.05 0.0 0 1 792.72 503.83
  Q 786.38 510.09 780.60 517.61
  Q 778.06 520.90 777.49 522.17
  A 4.84 4.84 0.0 0 0 777.09 523.78
  Q 776.66 529.50 773.70 549.69
  Q 765.85 603.24 737.15 646.81
  Q 732.24 654.25 723.61 665.07
  Q 714.11 676.98 709.29 682.73
  A 1.18 1.17 56.0 0 0 709.07 683.88
  Q 711.37 690.57 707.42 696.63
  Q 702.00 704.97 692.37 701.78
  A 0.96 0.95 -56.5 0 0 691.42 701.98
  Q 681.32 711.14 665.86 724.36
  C 660.53 728.92 653.11 734.25 646.45 738.16
  Q 630.31 747.64 613.61 755.12
  C 587.26 766.91 559.33 772.47 529.89 776.40
  A 6.15 6.08 -69.6 0 0 526.58 777.94
  L 512.98 790.30
  A 1.49 1.49 0.0 0 1 511.20 790.46
  Q 510.02 789.73 509.40 789.09
  Q 505.25 784.78 500.38 780.14
  C 497.14 777.06 494.37 775.60 489.78 774.96
  Q 466.96 771.80 437.48 763.76
  Q 424.14 760.12 416.49 757.05
  Q 387.59 745.44 362.08 727.04
  Q 348.51 717.25 335.72 703.86
  Q 334.52 702.61 333.43 701.94
  A 2.09 2.07 -31.9 0 0 332.10 701.64
  C 326.35 702.20 322.82 702.33 318.41 698.32
  Q 311.40 691.93 315.41 683.05
  A 1.16 1.15 -56.0 0 0 315.16 681.75
  C 286.79 654.35 267.46 616.80 257.56 578.95
  Q 250.65 552.51 248.12 526.22
  Q 247.42 519.02 242.67 514.87
  Q 241.23 513.62 230.47 503.02
  A 0.66 0.65 -43.0 0 1 230.51 502.05
  Z
  M 594.01 329.90
  Q 589.32 312.97 577.96 297.21
  Q 572.18 289.19 553.12 270.52
  Q 533.17 250.98 512.04 232.23
  A 0.80 0.79 44.2 0 0 510.96 232.24
  Q 488.16 253.72 464.08 278.58
  C 451.62 291.45 440.87 305.47 434.32 322.03
  Q 432.79 325.90 432.09 329.73
  A 0.68 0.68 0.0 0 0 432.43 330.45
  Q 448.54 339.33 458.64 349.13
  Q 466.68 356.92 474.10 365.53
  A 0.75 0.75 0.0 0 0 475.20 365.57
  L 502.54 338.23
  A 1.56 1.55 65.2 0 0 502.99 337.00
  L 502.50 331.74
  A 1.28 1.07 53.9 0 1 502.52 331.43
  Q 503.89 325.38 509.02 324.12
  C 514.20 322.83 521.96 325.16 521.65 332.01
  Q 521.57 333.70 520.87 337.55
  A 2.21 2.21 0.0 0 0 521.48 339.51
  L 545.64 363.66
  A 1.29 1.29 0.0 0 0 547.49 363.65
  Q 567.79 342.60 593.69 330.60
  A 0.59 0.59 0.0 0 0 594.01 329.90
  Z
  M 540.49 243.32
  C 553.91 256.30 566.12 267.34 578.01 280.49
  Q 594.08 298.26 601.58 320.59
  C 602.13 322.21 602.49 324.43 603.13 326.12
  A 0.70 0.70 0.0 0 0 603.96 326.55
  C 614.44 323.75 624.86 322.90 637.18 321.66
  Q 643.51 321.03 651.35 320.95
  Q 672.48 320.73 682.28 320.94
  A 0.77 0.76 76.5 0 0 682.97 319.81
  Q 680.44 315.07 681.07 311.23
  A 3.32 3.31 25.9 0 0 680.02 308.22
  Q 664.02 293.72 645.91 281.06
  C 621.48 264.00 593.52 253.63 565.12 247.66
  Q 551.43 244.79 540.72 242.88
  A 0.26 0.26 0.0 0 0 540.49 243.32
  Z
  M 342.61 320.72
  Q 353.98 320.04 368.05 320.49
  Q 393.13 321.28 393.46 321.30
  Q 408.29 322.19 421.88 326.06
  A 0.76 0.76 0.0 0 0 422.83 325.50
  Q 427.39 306.38 439.80 290.77
  C 453.40 273.68 468.65 258.61 484.32 243.96
  A 0.31 0.31 0.0 0 0 484.06 243.42
  Q 463.06 246.59 443.14 250.91
  C 434.33 252.82 424.34 255.96 416.45 259.20
  Q 408.09 262.63 391.52 271.79
  Q 365.73 286.06 344.40 307.42
  Q 343.82 308.01 342.52 309.84
  A 1.19 1.17 -38.9 0 0 342.39 310.96
  Q 344.06 315.00 342.07 319.97
  A 0.55 0.54 9.5 0 0 342.61 320.72
  Z
  M 340.23 331.60
  C 339.55 344.30 339.51 355.73 340.88 368.22
  Q 341.34 372.48 342.34 384.22
  Q 343.55 398.41 347.31 411.15
  A 1.31 1.31 0.0 0 0 348.71 412.08
  Q 362.50 410.56 379.65 410.78
  C 394.69 410.98 409.71 414.07 424.37 417.44
  A 0.64 0.64 0.0 0 0 425.15 416.78
  Q 425.12 416.00 424.86 415.12
  Q 419.02 395.72 417.17 374.53
  C 416.71 369.27 417.59 364.07 417.69 358.82
  Q 417.91 347.89 419.73 337.69
  A 1.42 1.41 -78.0 0 0 418.68 336.07
  Q 403.62 332.36 387.99 331.36
  Q 364.11 329.85 340.58 331.25
  A 0.37 0.37 0.0 0 0 340.23 331.60
  Z
  M 684.21 331.93
  Q 681.77 331.26 678.75 331.16
  Q 665.77 330.76 647.01 331.15
  C 633.63 331.42 619.24 332.84 606.56 337.12
  A 0.93 0.93 0.0 0 0 605.95 338.22
  C 608.19 347.94 609.10 358.19 608.28 368.99
  Q 606.50 392.56 600.42 415.27
  A 1.21 1.20 7.8 0 0 601.58 416.79
  Q 603.31 416.81 604.14 416.64
  Q 610.32 415.36 627.42 412.39
  Q 636.19 410.86 646.78 410.85
  C 657.55 410.84 664.67 410.66 671.22 411.53
  Q 674.24 411.93 676.17 412.05
  A 1.02 1.02 0.0 0 0 677.17 411.41
  Q 680.69 402.46 682.15 392.48
  Q 684.44 376.77 685.55 362.04
  Q 686.39 350.88 684.81 332.66
  A 0.84 0.84 0.0 0 0 684.21 331.93
  Z
  M 765.87 471.79
  Q 764.28 458.08 760.61 441.70
  C 759.48 436.64 758.83 429.97 757.07 424.95
  C 750.28 405.55 742.69 386.14 732.10 369.37
  C 723.93 356.43 714.53 343.58 703.69 332.18
  A 1.57 1.56 -39.6 0 0 701.64 331.99
  Q 699.58 333.47 696.35 333.03
  A 0.64 0.62 1.1 0 0 695.63 333.71
  Q 697.50 352.05 694.98 377.27
  Q 692.89 398.23 687.69 413.02
  A 0.61 0.61 0.0 0 0 688.10 413.81
  C 708.88 419.70 726.19 431.68 741.56 446.64
  C 749.02 453.89 757.64 462.92 765.31 472.03
  A 0.32 0.32 0.0 0 0 765.87 471.79
  Z
  M 259.51 471.51
  Q 261.15 470.10 263.36 467.61
  Q 271.78 458.10 289.18 441.21
  Q 309.73 421.28 337.07 413.56
  A 0.49 0.48 74.4 0 0 337.40 412.96
  Q 334.18 401.64 332.92 391.27
  Q 329.51 363.17 329.05 348.75
  Q 328.79 340.49 330.08 333.02
  A 0.68 0.68 0.0 0 0 329.15 332.28
  Q 325.43 333.85 322.11 332.73
  A 1.76 1.74 -59.6 0 0 320.23 333.23
  Q 313.93 340.30 305.25 351.47
  Q 296.56 362.64 291.70 370.76
  C 278.54 392.71 267.70 417.39 263.55 442.51
  Q 260.54 460.70 259.04 471.25
  A 0.29 0.29 0.0 0 0 259.51 471.51
  Z
  M 429.07 341.24
  C 425.02 363.27 427.07 385.32 432.19 407.72
  A 0.58 0.58 0.0 0 0 433.17 408.00
  L 468.11 373.06
  A 0.87 0.86 -43.8 0 0 468.14 371.86
  C 456.74 359.47 444.94 348.60 429.60 340.97
  A 0.38 0.37 -71.9 0 0 429.07 341.24
  Z
  M 591.99 408.05
  A 0.51 0.50 -61.3 0 0 592.84 407.80
  Q 596.98 388.33 598.41 369.38
  C 599.12 359.91 598.28 350.44 596.92 341.93
  A 0.85 0.84 -16.9 0 0 595.72 341.30
  C 588.44 344.70 580.39 348.58 573.83 353.22
  Q 563.35 360.65 554.48 370.13
  A 0.30 0.30 0.0 0 0 554.49 370.55
  L 591.99 408.05
  Z
  M 512.12 344.05
  A 0.49 0.49 0.0 0 0 511.44 344.06
  L 481.42 373.43
  A 0.49 0.49 0.0 0 0 481.42 374.13
  L 510.30 403.01
  A 0.49 0.49 0.0 0 0 511.01 402.99
  L 540.02 371.03
  A 0.49 0.49 0.0 0 0 539.99 370.34
  L 512.12 344.05
  Z
  M 518.54 410.07
  L 535.91 427.44
  A 0.76 0.76 0.0 0 0 536.85 427.55
  Q 546.13 421.78 558.28 420.48
  C 567.13 419.54 577.75 419.82 588.26 419.97
  A 0.91 0.91 0.0 0 0 588.91 418.42
  L 548.41 377.92
  A 0.82 0.81 -46.2 0 0 547.23 377.95
  L 518.52 409.56
  A 0.38 0.37 43.3 0 0 518.54 410.07
  Z
  M 436.62 419.93
  Q 437.14 419.95 458.25 419.96
  Q 473.33 419.97 486.09 427.61
  A 0.80 0.79 37.6 0 0 487.05 427.49
  L 503.76 410.78
  A 0.98 0.98 0.0 0 0 503.74 409.38
  Q 491.79 398.10 489.79 396.18
  C 484.44 391.07 481.34 387.42 474.90 380.20
  A 0.23 0.23 0.0 0 0 474.57 380.19
  L 436.15 418.76
  A 0.69 0.69 0.0 0 0 436.62 419.93
  Z
  M 511.11 452.40
  Q 511.51 452.40 511.77 451.95
  Q 517.86 441.38 527.06 433.57
  A 0.62 0.62 0.0 0 0 527.11 432.67
  Q 520.37 425.61 512.56 417.74
  Q 512.03 417.20 511.39 417.07
  Q 511.30 417.05 511.22 417.05
  Q 511.13 417.05 511.04 417.07
  Q 510.40 417.20 509.87 417.73
  Q 502.02 425.56 495.23 432.58
  A 0.62 0.62 0.0 0 0 495.28 433.48
  Q 504.43 441.34 510.46 451.94
  Q 510.72 452.40 511.11 452.40
  Z
  M 350.34 421.73
  Q 355.55 433.79 358.57 438.91
  Q 366.35 452.11 377.14 462.64
  A 0.59 0.58 -45.3 0 0 377.96 462.63
  L 415.09 425.50
  A 0.33 0.33 0.0 0 0 414.93 424.95
  Q 408.53 423.54 401.09 422.55
  C 389.39 420.99 379.33 419.78 368.25 420.10
  Q 365.48 420.18 350.68 421.17
  A 0.40 0.40 0.0 0 0 350.34 421.73
  Z
  M 609.04 425.32
  L 645.43 462.50
  A 0.41 0.41 0.0 0 0 646.05 462.47
  C 649.66 457.95 655.25 452.40 658.69 447.85
  Q 667.23 436.53 673.76 422.43
  A 0.74 0.74 0.0 0 0 673.16 421.38
  C 658.52 419.97 644.15 419.32 629.44 421.64
  Q 611.45 424.48 609.22 424.80
  A 0.31 0.31 0.0 0 0 609.04 425.32
  Z
  M 246.58 503.63
  Q 255.17 512.97 255.22 513.02
  Q 256.44 514.49 281.26 541.74
  Q 293.76 555.47 302.92 563.60
  Q 319.24 578.09 340.44 584.10
  A 0.85 0.85 0.0 0 0 341.43 583.67
  C 349.72 567.56 361.15 553.81 373.80 540.41
  A 1.29 1.29 0.0 0 0 373.76 538.60
  L 347.70 513.35
  A 5.60 5.58 -11.4 0 0 346.04 512.25
  Q 345.53 512.09 343.78 511.80
  C 339.30 511.06 337.23 508.21 337.43 503.27
  C 337.65 498.05 339.83 495.53 344.34 494.48
  Q 347.12 493.83 347.25 493.74
  A 6.04 5.96 5.6 0 0 348.31 492.88
  L 371.16 469.76
  A 0.72 0.72 0.0 0 0 371.11 468.71
  Q 349.79 450.68 340.82 423.70
  A 0.57 0.56 -15.9 0 0 340.14 423.33
  C 329.71 425.91 319.41 431.70 310.54 437.74
  C 303.24 442.70 295.62 449.80 289.87 455.62
  C 276.38 469.28 265.30 482.26 246.58 503.07
  A 0.41 0.41 0.0 0 0 246.58 503.63
  Z
  M 650.85 540.39
  C 663.61 553.56 675.38 567.89 683.40 584.60
  A 0.94 0.93 68.5 0 0 684.52 585.09
  Q 703.70 579.12 719.33 565.55
  Q 731.15 555.28 740.72 544.97
  Q 767.50 516.11 777.86 504.67
  A 1.56 1.56 0.0 0 0 777.89 502.62
  Q 759.87 481.54 740.80 460.64
  C 724.81 443.13 707.25 429.32 684.32 423.60
  A 0.90 0.89 -70.7 0 0 683.28 424.11
  C 678.77 434.55 673.80 444.59 666.88 452.89
  Q 660.69 460.32 652.53 467.78
  A 0.87 0.86 45.7 0 0 652.52 469.04
  Q 665.33 481.40 675.80 493.12
  C 677.69 495.23 678.73 495.49 681.53 495.97
  C 688.52 497.17 689.10 505.58 685.03 510.24
  A 1.94 1.92 -79.1 0 1 684.23 510.79
  L 680.01 512.36
  A 5.59 5.48 13.6 0 0 678.27 513.40
  Q 664.05 525.96 650.85 539.72
  A 0.49 0.48 45.4 0 0 650.85 540.39
  Z
  M 597.01 427.22
  Q 596.82 428.08 596.88 429.01
  Q 598.02 445.28 596.92 463.94
  Q 596.40 472.71 591.52 480.59
  A 1.41 1.41 0.0 0 0 591.72 482.33
  L 606.36 496.97
  A 1.21 1.21 0.0 0 0 608.04 496.99
  L 637.55 468.96
  A 0.71 0.71 0.0 0 0 637.57 467.95
  L 597.56 427.06
  A 0.33 0.33 0.0 0 0 597.01 427.22
  Z
  M 386.22 469.69
  Q 388.82 472.57 390.86 474.39
  Q 403.27 485.44 413.71 495.96
  Q 415.14 497.41 415.59 497.72
  Q 416.85 498.59 418.22 497.27
  Q 426.06 489.76 432.38 482.65
  A 2.23 2.23 0.0 0 0 432.75 480.27
  C 425.77 464.57 427.07 449.07 427.76 431.75
  Q 427.83 429.94 427.41 427.95
  A 0.41 0.40 -28.4 0 0 426.72 427.75
  L 386.26 468.21
  A 1.08 1.08 0.0 0 0 386.22 469.69
  Z
  M 441.25 472.54
  A 0.40 0.40 0.0 0 0 441.89 472.64
  L 478.64 435.89
  A 1.01 1.00 -55.6 0 0 478.34 434.26
  Q 467.77 429.56 456.00 429.77
  Q 439.45 430.07 437.63 430.04
  A 0.57 0.56 -3.1 0 0 437.06 430.67
  Q 437.60 435.05 437.36 441.70
  C 436.92 453.75 436.28 462.98 441.25 472.54
  Z
  M 587.33 430.01
  Q 575.12 429.59 564.25 430.04
  Q 554.29 430.44 544.72 434.22
  A 0.78 0.78 0.0 0 0 544.45 435.49
  L 582.75 473.79
  A 0.65 0.65 0.0 0 0 583.79 473.62
  C 590.81 459.72 586.60 446.16 587.82 430.55
  A 0.51 0.50 3.3 0 0 587.33 430.01
  Z
  M 472.45 504.33
  A 0.38 0.38 0.0 0 1 472.46 504.95
  C 463.43 511.56 454.43 518.60 447.41 526.70
  A 1.70 1.69 43.0 0 0 447.50 529.01
  L 488.14 569.65
  A 0.88 0.87 46.7 0 0 489.35 569.69
  Q 502.16 558.10 511.19 543.31
  A 0.62 0.62 0.0 0 1 512.22 543.28
  Q 522.28 557.49 535.36 569.07
  A 0.78 0.77 43.0 0 0 536.42 569.04
  L 576.54 528.92
  A 1.35 1.34 48.2 0 0 576.64 527.13
  C 569.91 518.71 561.80 512.71 553.28 505.98
  A 1.10 1.09 -42.8 0 1 553.35 504.21
  Q 566.36 495.38 576.83 483.01
  A 1.32 1.31 -47.5 0 0 576.76 481.23
  L 536.03 440.50
  A 0.70 0.69 -43.1 0 0 535.08 440.47
  Q 522.10 451.88 511.71 466.65
  A 0.54 0.54 0.0 0 1 510.82 466.64
  Q 501.45 452.91 488.47 441.07
  A 0.59 0.57 45.0 0 0 487.68 441.06
  Q 466.86 460.05 447.18 480.54
  A 1.17 1.17 0.0 0 0 447.11 482.08
  C 453.98 490.61 463.57 498.23 472.45 504.33
  Z
  M 352.89 503.97
  A 0.34 0.34 0.0 0 0 352.89 504.44
  L 380.90 533.06
  A 0.34 0.34 0.0 0 0 381.38 533.06
  L 409.61 505.44
  A 0.34 0.34 0.0 0 0 409.60 504.95
  L 378.82 475.92
  A 0.34 0.34 0.0 0 0 378.34 475.94
  L 352.89 503.97
  Z
  M 643.28 533.68
  A 0.33 0.33 0.0 0 0 643.75 533.67
  L 671.28 504.49
  A 0.33 0.33 0.0 0 0 671.28 504.04
  L 645.52 475.70
  A 0.33 0.33 0.0 0 0 645.05 475.68
  L 614.64 504.56
  A 0.33 0.33 0.0 0 0 614.63 505.03
  L 643.28 533.68
  Z
  M 423.93 504.94
  C 423.93 505.47 431.81 513.07 439.33 520.60
  A 0.63 0.63 0.0 0 0 440.27 520.55
  Q 447.40 511.56 456.35 505.09
  Q 456.43 505.03 456.43 504.80
  Q 456.43 504.57 456.35 504.51
  Q 447.34 498.12 440.13 489.19
  A 0.63 0.63 0.0 0 0 439.20 489.15
  C 431.74 496.75 423.93 504.41 423.93 504.94
  Z
  M 567.68 505.13
  C 573.65 509.94 578.96 513.86 583.53 520.07
  A 0.59 0.59 0.0 0 0 584.42 520.14
  L 599.64 504.92
  A 1.57 1.56 43.5 0 0 599.58 502.66
  L 584.70 489.14
  A 0.28 0.28 0.0 0 0 584.30 489.17
  Q 577.64 497.45 567.70 504.38
  A 0.47 0.47 0.0 0 0 567.68 505.13
  Z
  M 597.42 579.53
  A 0.30 0.30 0.0 0 0 597.93 579.68
  L 636.52 541.10
  A 0.55 0.54 -45.4 0 0 636.52 540.33
  L 608.12 511.94
  A 1.07 1.07 0.0 0 0 606.67 511.88
  Q 598.70 518.73 591.41 527.12
  A 1.32 1.32 0.0 0 0 591.26 528.67
  Q 596.11 536.85 597.06 546.42
  C 597.97 555.48 597.58 567.39 597.26 577.75
  Q 597.24 578.67 597.42 579.53
  Z
  M 426.80 580.66
  Q 427.06 579.07 427.05 578.25
  Q 426.92 558.74 427.07 552.26
  Q 427.34 539.67 433.62 529.27
  A 0.94 0.94 0.0 0 0 433.48 528.12
  L 417.46 512.11
  A 0.88 0.88 0.0 0 0 416.22 512.11
  L 388.71 539.62
  A 1.07 1.07 0.0 0 0 388.71 541.13
  Q 407.28 559.99 420.19 573.73
  Q 423.96 577.73 426.26 580.80
  A 0.30 0.30 0.0 0 0 426.80 580.66
  Z
  M 329.34 673.13
  Q 328.30 655.73 328.34 652.75
  Q 328.76 623.05 336.88 594.84
  A 0.47 0.46 18.4 0 0 336.59 594.27
  C 317.21 587.58 301.72 577.23 286.45 562.10
  Q 273.89 549.65 258.83 532.91
  A 0.33 0.33 0.0 0 0 258.26 533.17
  Q 260.13 550.20 264.39 568.36
  Q 278.45 628.17 320.75 672.22
  C 321.40 672.89 321.91 673.02 322.73 672.72
  C 324.44 672.09 326.75 672.75 328.64 673.61
  A 0.50 0.49 10.5 0 0 329.34 673.13
  Z
  M 766.19 534.26
  Q 757.23 542.77 744.95 556.45
  Q 721.12 583.00 688.09 594.80
  A 0.64 0.63 73.1 0 0 687.69 595.56
  Q 692.06 611.25 693.43 625.42
  C 694.00 631.34 693.96 635.69 694.51 640.75
  Q 694.96 644.93 695.01 652.26
  Q 695.09 664.53 695.03 672.82
  A 0.42 0.42 0.0 0 0 695.56 673.23
  Q 699.04 672.23 701.78 672.97
  A 1.22 1.21 -62.2 0 0 703.02 672.58
  Q 722.69 648.93 728.68 640.94
  C 737.59 629.08 744.15 614.51 750.18 600.94
  Q 755.13 589.79 757.49 581.25
  C 761.29 567.46 764.84 550.42 766.64 534.49
  A 0.27 0.27 0.0 0 0 766.19 534.26
  Z
  M 563.09 555.47
  Q 558.10 560.42 543.65 574.90
  A 0.48 0.48 0.0 0 0 543.76 575.66
  Q 551.55 579.82 560.25 579.97
  Q 566.69 580.08 587.17 580.34
  Q 587.35 580.35 587.40 580.31
  Q 587.51 580.24 587.60 580.16
  Q 587.69 580.07 587.76 579.96
  Q 587.80 579.91 587.79 579.73
  Q 587.67 559.24 587.61 552.80
  Q 587.52 544.10 583.42 536.28
  A 0.48 0.48 0.0 0 0 582.66 536.17
  Q 568.07 550.52 563.09 555.47
  Z
  M 441.32 536.34
  Q 438.20 543.38 437.11 549.43
  Q 436.50 552.85 436.88 563.10
  Q 437.18 571.06 436.72 580.58
  A 0.61 0.61 0.0 0 0 437.37 581.22
  Q 447.20 580.47 459.50 580.33
  Q 470.60 580.20 480.25 575.67
  A 0.38 0.38 0.0 0 0 480.36 575.05
  L 441.60 536.29
  A 0.17 0.17 0.0 0 0 441.32 536.34
  Z
  M 351.57 587.80
  Q 366.80 589.83 373.00 590.07
  C 387.77 590.64 403.41 587.09 417.28 584.64
  A 0.45 0.44 -27.6 0 0 417.52 583.89
  Q 403.77 570.31 392.80 559.22
  Q 386.85 553.21 381.59 546.84
  A 0.59 0.58 45.9 0 0 380.70 546.82
  C 369.15 559.97 358.12 572.45 351.23 587.18
  A 0.44 0.44 0.0 0 0 351.57 587.80
  Z
  M 673.64 587.20
  C 667.10 572.21 655.21 558.49 643.66 547.45
  A 0.44 0.43 44.5 0 0 643.05 547.45
  L 606.46 584.04
  A 0.46 0.46 0.0 0 0 606.71 584.82
  Q 622.25 587.43 629.01 588.48
  Q 641.43 590.41 649.01 590.00
  Q 656.20 589.60 669.76 588.72
  Q 671.76 588.59 673.32 587.97
  A 0.58 0.58 0.0 0 0 673.64 587.20
  Z
  M 528.45 576.29
  Q 519.17 568.80 512.82 559.27
  A 0.48 0.48 0.0 0 0 512.03 559.26
  Q 505.29 568.70 496.20 576.87
  A 0.79 0.78 43.2 0 0 496.24 578.07
  Q 504.01 584.28 511.14 592.58
  A 1.24 1.24 0.0 0 0 513.02 592.58
  Q 519.76 584.69 528.46 577.44
  A 0.75 0.75 0.0 0 0 528.45 576.29
  Z
  M 436.29 590.54
  Q 456.83 612.02 475.57 629.20
  A 1.25 1.25 0.0 0 0 477.30 629.16
  L 505.34 601.13
  A 0.93 0.93 0.0 0 0 505.34 599.82
  L 488.88 583.36
  A 1.37 1.37 0.0 0 0 487.20 583.16
  C 476.04 589.87 465.98 589.87 451.99 590.26
  Q 443.05 590.50 436.44 590.21
  A 0.20 0.19 70.1 0 0 436.29 590.54
  Z
  M 586.90 589.55
  C 568.79 590.05 551.50 591.71 536.97 583.30
  A 1.49 1.48 -52.2 0 0 535.18 583.53
  L 519.78 598.93
  A 0.76 0.76 0.0 0 0 519.79 600.00
  Q 529.05 608.94 539.56 619.69
  Q 543.80 624.03 547.22 628.22
  A 0.75 0.74 49.7 0 0 548.29 628.31
  C 561.88 616.56 575.17 602.07 587.18 590.19
  A 0.38 0.37 21.6 0 0 586.90 589.55
  Z
  M 600.52 592.71
  A 0.57 0.57 0.0 0 0 599.91 593.44
  Q 605.43 611.63 607.37 633.98
  Q 608.15 643.00 607.24 651.52
  Q 605.98 663.43 605.35 670.62
  A 0.59 0.59 0.0 0 0 605.69 671.20
  Q 616.35 675.84 627.25 677.47
  Q 629.31 677.78 646.75 678.71
  C 659.64 679.40 672.48 678.01 683.60 675.93
  A 0.76 0.75 -3.1 0 0 684.21 675.26
  Q 686.03 655.62 684.24 636.65
  C 682.95 622.98 681.33 611.44 677.55 598.47
  A 0.90 0.89 -8.2 0 0 676.69 597.83
  C 671.63 597.85 666.56 599.02 661.52 599.01
  C 654.60 598.99 648.39 599.89 641.83 599.39
  Q 622.83 597.96 604.95 594.02
  C 603.34 593.66 601.97 592.86 600.52 592.71
  Z
  M 423.31 593.81
  Q 411.03 596.96 396.58 598.14
  Q 377.11 599.75 377.00 599.75
  Q 362.60 600.64 347.45 597.21
  A 0.74 0.74 0.0 0 0 346.58 597.69
  C 341.12 613.94 340.65 626.51 339.08 647.53
  C 338.38 656.95 339.89 666.61 340.31 676.26
  A 1.62 1.62 0.0 0 0 341.84 677.81
  C 352.13 678.40 360.47 678.93 371.40 678.24
  Q 389.04 677.12 396.23 676.63
  Q 408.30 675.81 419.24 670.96
  A 0.43 0.43 0.0 0 0 419.49 670.48
  Q 416.13 652.94 417.37 635.97
  Q 418.92 614.75 424.03 594.53
  A 0.59 0.59 0.0 0 0 423.31 593.81
  Z
  M 591.42 599.24
  Q 590.76 599.67 590.34 600.09
  Q 567.79 622.97 560.86 629.40
  C 558.71 631.40 556.54 633.02 554.59 634.91
  A 0.60 0.59 -44.0 0 0 554.57 635.74
  C 565.72 648.13 579.43 660.11 594.77 666.92
  A 0.73 0.73 0.0 0 0 595.79 666.38
  Q 599.74 644.59 596.39 622.88
  Q 594.71 612.00 591.86 599.42
  A 0.29 0.29 0.0 0 0 591.42 599.24
  Z
  M 429.74 666.86
  C 444.52 658.86 456.69 648.15 469.62 636.06
  A 0.38 0.37 -46.4 0 0 469.61 635.50
  Q 450.73 619.95 432.63 599.95
  A 0.29 0.29 0.0 0 0 432.13 600.09
  Q 429.86 610.80 428.42 621.18
  Q 426.30 636.49 427.15 652.48
  C 427.41 657.28 428.31 661.76 429.12 666.55
  A 0.43 0.42 71.2 0 0 429.74 666.86
  Z
  M 513.14 606.90
  A 0.34 0.34 0.0 0 0 512.66 606.90
  L 483.76 635.79
  A 0.34 0.34 0.0 0 0 483.77 636.28
  L 512.02 661.93
  A 0.34 0.34 0.0 0 0 512.48 661.92
  L 540.79 635.04
  A 0.34 0.34 0.0 0 0 540.79 634.55
  L 513.14 606.90
  Z
  M 547.29 642.31
  Q 533.30 655.26 523.02 665.51
  Q 521.04 667.49 521.08 669.08
  C 521.21 674.03 520.59 678.06 516.54 681.00
  C 512.57 683.88 506.95 682.04 504.35 678.18
  C 502.41 675.31 502.75 671.91 503.36 668.33
  A 1.41 1.40 -64.3 0 0 502.92 667.07
  L 476.84 643.39
  A 1.24 1.23 -46.5 0 0 475.12 643.44
  C 462.19 656.68 448.58 668.75 432.52 677.71
  A 0.96 0.95 68.1 0 0 432.06 678.79
  Q 435.09 690.82 441.46 701.04
  Q 448.60 712.51 454.76 719.76
  Q 462.37 728.74 472.72 738.80
  Q 487.42 753.11 501.72 766.50
  C 505.18 769.75 508.47 773.77 511.19 776.54
  A 0.57 0.57 0.0 0 0 512.00 776.54
  C 519.38 769.05 528.95 759.40 538.23 750.72
  Q 546.74 742.76 559.28 730.28
  C 574.80 714.83 587.32 699.35 592.88 678.56
  A 1.65 1.65 0.0 0 0 591.89 676.60
  Q 576.24 670.40 564.03 659.00
  Q 556.19 651.68 547.88 642.34
  A 0.41 0.41 0.0 0 0 547.29 642.31
  Z
  M 342.57 688.54
  L 344.10 696.73
  A 1.67 1.64 16.0 0 0 344.65 697.70
  Q 353.64 705.58 365.74 715.48
  Q 381.94 728.74 400.36 738.78
  Q 414.61 746.55 433.74 752.71
  Q 452.59 758.78 468.86 761.54
  C 474.49 762.49 478.83 763.67 483.76 764.06
  A 0.56 0.56 0.0 0 0 484.18 763.09
  C 468.89 748.80 454.97 736.75 442.20 721.04
  C 432.45 709.02 426.37 696.93 422.68 682.51
  A 0.66 0.65 76.6 0 0 421.91 682.03
  Q 420.51 682.33 414.25 684.21
  Q 408.58 685.91 400.57 686.55
  Q 386.93 687.63 373.25 688.77
  Q 369.51 689.08 352.71 688.96
  C 349.08 688.93 345.83 688.15 343.06 687.99
  A 0.47 0.47 0.0 0 0 342.57 688.54
  Z
  M 540.19 764.19
  Q 540.67 764.26 541.37 764.13
  C 563.33 760.23 582.55 757.02 601.57 749.52
  Q 613.26 744.91 627.58 737.21
  C 644.05 728.34 659.65 716.23 673.59 703.84
  Q 677.02 700.78 680.60 696.60
  A 2.21 2.19 59.7 0 0 681.08 694.74
  Q 680.37 691.20 681.68 687.48
  A 0.42 0.42 0.0 0 0 681.21 686.93
  C 670.31 688.89 662.72 689.06 648.92 689.05
  C 633.66 689.03 617.86 686.67 603.76 681.90
  A 0.81 0.80 18.4 0 0 602.73 682.41
  C 599.76 691.40 596.55 699.70 591.70 708.07
  Q 587.82 714.75 580.53 722.83
  C 568.02 736.69 559.88 744.23 539.98 763.52
  A 0.39 0.39 0.0 0 0 540.19 764.19
  Z"
/>
<path fill="#ffffff" d="
  M 594.01 329.90
  A 0.59 0.59 0.0 0 1 593.69 330.60
  Q 567.79 342.60 547.49 363.65
  A 1.29 1.29 0.0 0 1 545.64 363.66
  L 521.48 339.51
  A 2.21 2.21 0.0 0 1 520.87 337.55
  Q 521.57 333.70 521.65 332.01
  C 521.96 325.16 514.20 322.83 509.02 324.12
  Q 503.89 325.38 502.52 331.43
  A 1.28 1.07 53.9 0 0 502.50 331.74
  L 502.99 337.00
  A 1.56 1.55 65.2 0 1 502.54 338.23
  L 475.20 365.57
  A 0.75 0.75 0.0 0 1 474.10 365.53
  Q 466.68 356.92 458.64 349.13
  Q 448.54 339.33 432.43 330.45
  A 0.68 0.68 0.0 0 1 432.09 329.73
  Q 432.79 325.90 434.32 322.03
  C 440.87 305.47 451.62 291.45 464.08 278.58
  Q 488.16 253.72 510.96 232.24
  A 0.80 0.79 44.2 0 1 512.04 232.23
  Q 533.17 250.98 553.12 270.52
  Q 572.18 289.19 577.96 297.21
  Q 589.32 312.97 594.01 329.90
  Z"
/>
<path fill="#ffffff" d="
  M 540.49 243.32
  A 0.26 0.26 0.0 0 1 540.72 242.88
  Q 551.43 244.79 565.12 247.66
  C 593.52 253.63 621.48 264.00 645.91 281.06
  Q 664.02 293.72 680.02 308.22
  A 3.32 3.31 25.9 0 1 681.07 311.23
  Q 680.44 315.07 682.97 319.81
  A 0.77 0.76 76.5 0 1 682.28 320.94
  Q 672.48 320.73 651.35 320.95
  Q 643.51 321.03 637.18 321.66
  C 624.86 322.90 614.44 323.75 603.96 326.55
  A 0.70 0.70 0.0 0 1 603.13 326.12
  C 602.49 324.43 602.13 322.21 601.58 320.59
  Q 594.08 298.26 578.01 280.49
  C 566.12 267.34 553.91 256.30 540.49 243.32
  Z"
/>
<path fill="#ffffff" d="
  M 342.07 319.97
  Q 344.06 315.00 342.39 310.96
  A 1.19 1.17 -38.9 0 1 342.52 309.84
  Q 343.82 308.01 344.40 307.42
  Q 365.73 286.06 391.52 271.79
  Q 408.09 262.63 416.45 259.20
  C 424.34 255.96 434.33 252.82 443.14 250.91
  Q 463.06 246.59 484.06 243.42
  A 0.31 0.31 0.0 0 1 484.32 243.96
  C 468.65 258.61 453.40 273.68 439.80 290.77
  Q 427.39 306.38 422.83 325.50
  A 0.76 0.76 0.0 0 1 421.88 326.06
  Q 408.29 322.19 393.46 321.30
  Q 393.13 321.28 368.05 320.49
  Q 353.98 320.04 342.61 320.72
  A 0.55 0.54 9.5 0 1 342.07 319.97
  Z"
/>
<path fill="#ffffff" d="
  M 340.23 331.60
  A 0.37 0.37 0.0 0 1 340.58 331.25
  Q 364.11 329.85 387.99 331.36
  Q 403.62 332.36 418.68 336.07
  A 1.42 1.41 -78.0 0 1 419.73 337.69
  Q 417.91 347.89 417.69 358.82
  C 417.59 364.07 416.71 369.27 417.17 374.53
  Q 419.02 395.72 424.86 415.12
  Q 425.12 416.00 425.15 416.78
  A 0.64 0.64 0.0 0 1 424.37 417.44
  C 409.71 414.07 394.69 410.98 379.65 410.78
  Q 362.50 410.56 348.71 412.08
  A 1.31 1.31 0.0 0 1 347.31 411.15
  Q 343.55 398.41 342.34 384.22
  Q 341.34 372.48 340.88 368.22
  C 339.51 355.73 339.55 344.30 340.23 331.60
  Z"
/>
<path fill="#ffffff" d="
  M 684.81 332.66
  Q 686.39 350.88 685.55 362.04
  Q 684.44 376.77 682.15 392.48
  Q 680.69 402.46 677.17 411.41
  A 1.02 1.02 0.0 0 1 676.17 412.05
  Q 674.24 411.93 671.22 411.53
  C 664.67 410.66 657.55 410.84 646.78 410.85
  Q 636.19 410.86 627.42 412.39
  Q 610.32 415.36 604.14 416.64
  Q 603.31 416.81 601.58 416.79
  A 1.21 1.20 7.8 0 1 600.42 415.27
  Q 606.50 392.56 608.28 368.99
  C 609.10 358.19 608.19 347.94 605.95 338.22
  A 0.93 0.93 0.0 0 1 606.56 337.12
  C 619.24 332.84 633.63 331.42 647.01 331.15
  Q 665.77 330.76 678.75 331.16
  Q 681.77 331.26 684.21 331.93
  A 0.84 0.84 0.0 0 1 684.81 332.66
  Z"
/>
<path fill="#ffffff" d="
  M 765.87 471.79
  A 0.32 0.32 0.0 0 1 765.31 472.03
  C 757.64 462.92 749.02 453.89 741.56 446.64
  C 726.19 431.68 708.88 419.70 688.10 413.81
  A 0.61 0.61 0.0 0 1 687.69 413.02
  Q 692.89 398.23 694.98 377.27
  Q 697.50 352.05 695.63 333.71
  A 0.64 0.62 1.1 0 1 696.35 333.03
  Q 699.58 333.47 701.64 331.99
  A 1.57 1.56 -39.6 0 1 703.69 332.18
  C 714.53 343.58 723.93 356.43 732.10 369.37
  C 742.69 386.14 750.28 405.55 757.07 424.95
  C 758.83 429.97 759.48 436.64 760.61 441.70
  Q 764.28 458.08 765.87 471.79
  Z"
/>
<path fill="#ffffff" d="
  M 259.51 471.51
  A 0.29 0.29 0.0 0 1 259.04 471.25
  Q 260.54 460.70 263.55 442.51
  C 267.70 417.39 278.54 392.71 291.70 370.76
  Q 296.56 362.64 305.25 351.47
  Q 313.93 340.30 320.23 333.23
  A 1.76 1.74 -59.6 0 1 322.11 332.73
  Q 325.43 333.85 329.15 332.28
  A 0.68 0.68 0.0 0 1 330.08 333.02
  Q 328.79 340.49 329.05 348.75
  Q 329.51 363.17 332.92 391.27
  Q 334.18 401.64 337.40 412.96
  A 0.49 0.48 74.4 0 1 337.07 413.56
  Q 309.73 421.28 289.18 441.21
  Q 271.78 458.10 263.36 467.61
  Q 261.15 470.10 259.51 471.51
  Z"
/>
<path fill="#ffffff" d="
  M 429.07 341.24
  A 0.38 0.37 -71.9 0 1 429.60 340.97
  C 444.94 348.60 456.74 359.47 468.14 371.86
  A 0.87 0.86 -43.8 0 1 468.11 373.06
  L 433.17 408.00
  A 0.58 0.58 0.0 0 1 432.19 407.72
  C 427.07 385.32 425.02 363.27 429.07 341.24
  Z"
/>
<path fill="#ffffff" d="
  M 591.99 408.05
  L 554.49 370.55
  A 0.30 0.30 0.0 0 1 554.48 370.13
  Q 563.35 360.65 573.83 353.22
  C 580.39 348.58 588.44 344.70 595.72 341.30
  A 0.85 0.84 -16.9 0 1 596.92 341.93
  C 598.28 350.44 599.12 359.91 598.41 369.38
  Q 596.98 388.33 592.84 407.80
  A 0.51 0.50 -61.3 0 1 591.99 408.05
  Z"
/>
<path fill="#ffffff" d="
  M 512.12 344.05
  L 539.99 370.34
  A 0.49 0.49 0.0 0 1 540.02 371.03
  L 511.01 402.99
  A 0.49 0.49 0.0 0 1 510.30 403.01
  L 481.42 374.13
  A 0.49 0.49 0.0 0 1 481.42 373.43
  L 511.44 344.06
  A 0.49 0.49 0.0 0 1 512.12 344.05
  Z"
/>
<path fill="#ffffff" d="
  M 518.54 410.07
  A 0.38 0.37 43.3 0 1 518.52 409.56
  L 547.23 377.95
  A 0.82 0.81 -46.2 0 1 548.41 377.92
  L 588.91 418.42
  A 0.91 0.91 0.0 0 1 588.26 419.97
  C 577.75 419.82 567.13 419.54 558.28 420.48
  Q 546.13 421.78 536.85 427.55
  A 0.76 0.76 0.0 0 1 535.91 427.44
  L 518.54 410.07
  Z"
/>
<path fill="#ffffff" d="
  M 436.62 419.93
  A 0.69 0.69 0.0 0 1 436.15 418.76
  L 474.57 380.19
  A 0.23 0.23 0.0 0 1 474.90 380.20
  C 481.34 387.42 484.44 391.07 489.79 396.18
  Q 491.79 398.10 503.74 409.38
  A 0.98 0.98 0.0 0 1 503.76 410.78
  L 487.05 427.49
  A 0.80 0.79 37.6 0 1 486.09 427.61
  Q 473.33 419.97 458.25 419.96
  Q 437.14 419.95 436.62 419.93
  Z"
/>
<path fill="#ffffff" d="
  M 511.22 417.05
  Q 511.30 417.05 511.39 417.07
  Q 512.03 417.20 512.56 417.74
  Q 520.37 425.61 527.11 432.67
  A 0.62 0.62 0.0 0 1 527.06 433.57
  Q 517.86 441.38 511.77 451.95
  Q 511.51 452.40 511.11 452.40
  Q 510.72 452.40 510.46 451.94
  Q 504.43 441.34 495.28 433.48
  A 0.62 0.62 0.0 0 1 495.23 432.58
  Q 502.02 425.56 509.87 417.73
  Q 510.40 417.20 511.04 417.07
  Q 511.13 417.05 511.22 417.05
  Z"
/>
<path fill="#ffffff" d="
  M 350.68 421.17
  Q 365.48 420.18 368.25 420.10
  C 379.33 419.78 389.39 420.99 401.09 422.55
  Q 408.53 423.54 414.93 424.95
  A 0.33 0.33 0.0 0 1 415.09 425.50
  L 377.96 462.63
  A 0.59 0.58 -45.3 0 1 377.14 462.64
  Q 366.35 452.11 358.57 438.91
  Q 355.55 433.79 350.34 421.73
  A 0.40 0.40 0.0 0 1 350.68 421.17
  Z"
/>
<path fill="#ffffff" d="
  M 609.04 425.32
  A 0.31 0.31 0.0 0 1 609.22 424.80
  Q 611.45 424.48 629.44 421.64
  C 644.15 419.32 658.52 419.97 673.16 421.38
  A 0.74 0.74 0.0 0 1 673.76 422.43
  Q 667.23 436.53 658.69 447.85
  C 655.25 452.40 649.66 457.95 646.05 462.47
  A 0.41 0.41 0.0 0 1 645.43 462.50
  L 609.04 425.32
  Z"
/>
<path fill="#ffffff" d="
  M 246.58 503.63
  A 0.41 0.41 0.0 0 1 246.58 503.07
  C 265.30 482.26 276.38 469.28 289.87 455.62
  C 295.62 449.80 303.24 442.70 310.54 437.74
  C 319.41 431.70 329.71 425.91 340.14 423.33
  A 0.57 0.56 -15.9 0 1 340.82 423.70
  Q 349.79 450.68 371.11 468.71
  A 0.72 0.72 0.0 0 1 371.16 469.76
  L 348.31 492.88
  A 6.04 5.96 5.6 0 1 347.25 493.74
  Q 347.12 493.83 344.34 494.48
  C 339.83 495.53 337.65 498.05 337.43 503.27
  C 337.23 508.21 339.30 511.06 343.78 511.80
  Q 345.53 512.09 346.04 512.25
  A 5.60 5.58 -11.4 0 1 347.70 513.35
  L 373.76 538.60
  A 1.29 1.29 0.0 0 1 373.80 540.41
  C 361.15 553.81 349.72 567.56 341.43 583.67
  A 0.85 0.85 0.0 0 1 340.44 584.10
  Q 319.24 578.09 302.92 563.60
  Q 293.76 555.47 281.26 541.74
  Q 256.44 514.49 255.22 513.02
  Q 255.17 512.97 246.58 503.63
  Z"
/>
<path fill="#ffffff" d="
  M 650.85 540.39
  A 0.49 0.48 45.4 0 1 650.85 539.72
  Q 664.05 525.96 678.27 513.40
  A 5.59 5.48 13.6 0 1 680.01 512.36
  L 684.23 510.79
  A 1.94 1.92 -79.1 0 0 685.03 510.24
  C 689.10 505.58 688.52 497.17 681.53 495.97
  C 678.73 495.49 677.69 495.23 675.80 493.12
  Q 665.33 481.40 652.52 469.04
  A 0.87 0.86 45.7 0 1 652.53 467.78
  Q 660.69 460.32 666.88 452.89
  C 673.80 444.59 678.77 434.55 683.28 424.11
  A 0.90 0.89 -70.7 0 1 684.32 423.60
  C 707.25 429.32 724.81 443.13 740.80 460.64
  Q 759.87 481.54 777.89 502.62
  A 1.56 1.56 0.0 0 1 777.86 504.67
  Q 767.50 516.11 740.72 544.97
  Q 731.15 555.28 719.33 565.55
  Q 703.70 579.12 684.52 585.09
  A 0.94 0.93 68.5 0 1 683.40 584.60
  C 675.38 567.89 663.61 553.56 650.85 540.39
  Z"
/>
<path fill="#ffffff" d="
  M 597.01 427.22
  A 0.33 0.33 0.0 0 1 597.56 427.06
  L 637.57 467.95
  A 0.71 0.71 0.0 0 1 637.55 468.96
  L 608.04 496.99
  A 1.21 1.21 0.0 0 1 606.36 496.97
  L 591.72 482.33
  A 1.41 1.41 0.0 0 1 591.52 480.59
  Q 596.40 472.71 596.92 463.94
  Q 598.02 445.28 596.88 429.01
  Q 596.82 428.08 597.01 427.22
  Z"
/>
<path fill="#ffffff" d="
  M 386.22 469.69
  A 1.08 1.08 0.0 0 1 386.26 468.21
  L 426.72 427.75
  A 0.41 0.40 -28.4 0 1 427.41 427.95
  Q 427.83 429.94 427.76 431.75
  C 427.07 449.07 425.77 464.57 432.75 480.27
  A 2.23 2.23 0.0 0 1 432.38 482.65
  Q 426.06 489.76 418.22 497.27
  Q 416.85 498.59 415.59 497.72
  Q 415.14 497.41 413.71 495.96
  Q 403.27 485.44 390.86 474.39
  Q 388.82 472.57 386.22 469.69
  Z"
/>
<path fill="#ffffff" d="
  M 441.25 472.54
  C 436.28 462.98 436.92 453.75 437.36 441.70
  Q 437.60 435.05 437.06 430.67
  A 0.57 0.56 -3.1 0 1 437.63 430.04
  Q 439.45 430.07 456.00 429.77
  Q 467.77 429.56 478.34 434.26
  A 1.01 1.00 -55.6 0 1 478.64 435.89
  L 441.89 472.64
  A 0.40 0.40 0.0 0 1 441.25 472.54
  Z"
/>
<path fill="#ffffff" d="
  M 587.33 430.01
  A 0.51 0.50 3.3 0 1 587.82 430.55
  C 586.60 446.16 590.81 459.72 583.79 473.62
  A 0.65 0.65 0.0 0 1 582.75 473.79
  L 544.45 435.49
  A 0.78 0.78 0.0 0 1 544.72 434.22
  Q 554.29 430.44 564.25 430.04
  Q 575.12 429.59 587.33 430.01
  Z"
/>
<path fill="#ffffff" d="
  M 472.45 504.33
  C 463.57 498.23 453.98 490.61 447.11 482.08
  A 1.17 1.17 0.0 0 1 447.18 480.54
  Q 466.86 460.05 487.68 441.06
  A 0.59 0.57 45.0 0 1 488.47 441.07
  Q 501.45 452.91 510.82 466.64
  A 0.54 0.54 0.0 0 0 511.71 466.65
  Q 522.10 451.88 535.08 440.47
  A 0.70 0.69 -43.1 0 1 536.03 440.50
  L 576.76 481.23
  A 1.32 1.31 -47.5 0 1 576.83 483.01
  Q 566.36 495.38 553.35 504.21
  A 1.10 1.09 -42.8 0 0 553.28 505.98
  C 561.80 512.71 569.91 518.71 576.64 527.13
  A 1.35 1.34 48.2 0 1 576.54 528.92
  L 536.42 569.04
  A 0.78 0.77 43.0 0 1 535.36 569.07
  Q 522.28 557.49 512.22 543.28
  A 0.62 0.62 0.0 0 0 511.19 543.31
  Q 502.16 558.10 489.35 569.69
  A 0.88 0.87 46.7 0 1 488.14 569.65
  L 447.50 529.01
  A 1.70 1.69 43.0 0 1 447.41 526.70
  C 454.43 518.60 463.43 511.56 472.46 504.95
  A 0.38 0.38 0.0 0 0 472.45 504.33
  Z
  M 540.1059 479.0190
  A 0.88 0.88 0.0 0 0 539.2275 478.1374
  L 484.9275 478.0427
  A 0.88 0.88 0.0 0 0 484.0460 478.9211
  L 483.9541 531.6010
  A 0.88 0.88 0.0 0 0 484.8325 532.4826
  L 539.1325 532.5773
  A 0.88 0.88 0.0 0 0 540.0140 531.6989
  L 540.1059 479.0190
  Z"
/>
<path fill="#ffffff" d="
  M 352.89 503.97
  L 378.34 475.94
  A 0.34 0.34 0.0 0 1 378.82 475.92
  L 409.60 504.95
  A 0.34 0.34 0.0 0 1 409.61 505.44
  L 381.38 533.06
  A 0.34 0.34 0.0 0 1 380.90 533.06
  L 352.89 504.44
  A 0.34 0.34 0.0 0 1 352.89 503.97
  Z"
/>
<path fill="#ffffff" d="
  M 643.28 533.68
  L 614.63 505.03
  A 0.33 0.33 0.0 0 1 614.64 504.56
  L 645.05 475.68
  A 0.33 0.33 0.0 0 1 645.52 475.70
  L 671.28 504.04
  A 0.33 0.33 0.0 0 1 671.28 504.49
  L 643.75 533.67
  A 0.33 0.33 0.0 0 1 643.28 533.68
  Z"
/>
<path fill="#000000" d="
  M 540.0140 531.6989
  A 0.88 0.88 0.0 0 1 539.1325 532.5773
  L 484.8325 532.4826
  A 0.88 0.88 0.0 0 1 483.9541 531.6010
  L 484.0460 478.9211
  A 0.88 0.88 0.0 0 1 484.9275 478.0427
  L 539.2275 478.1374
  A 0.88 0.88 0.0 0 1 540.1059 479.0190
  L 540.0140 531.6989
  Z
  M 530.53 488.31
  A 0.38 0.38 0.0 0 0 530.15 487.93
  L 493.58 487.93
  A 0.38 0.38 0.0 0 0 493.20 488.31
  L 493.20 522.62
  A 0.38 0.38 0.0 0 0 493.58 523.00
  L 530.15 523.00
  A 0.38 0.38 0.0 0 0 530.53 522.62
  L 530.53 488.31
  Z"
/>
<path fill="#ffffff" d="
  M 530.53 488.31
  L 530.53 522.62
  A 0.38 0.38 0.0 0 1 530.15 523.00
  L 493.58 523.00
  A 0.38 0.38 0.0 0 1 493.20 522.62
  L 493.20 488.31
  A 0.38 0.38 0.0 0 1 493.58 487.93
  L 530.15 487.93
  A 0.38 0.38 0.0 0 1 530.53 488.31
  Z"
/>
<path fill="#ffffff" d="
  M 456.43 504.80
  Q 456.43 505.03 456.35 505.09
  Q 447.40 511.56 440.27 520.55
  A 0.63 0.63 0.0 0 1 439.33 520.60
  C 431.81 513.07 423.93 505.47 423.93 504.94
  C 423.93 504.41 431.74 496.75 439.20 489.15
  A 0.63 0.63 0.0 0 1 440.13 489.19
  Q 447.34 498.12 456.35 504.51
  Q 456.43 504.57 456.43 504.80
  Z"
/>
<path fill="#ffffff" d="
  M 567.68 505.13
  A 0.47 0.47 0.0 0 1 567.70 504.38
  Q 577.64 497.45 584.30 489.17
  A 0.28 0.28 0.0 0 1 584.70 489.14
  L 599.58 502.66
  A 1.57 1.56 43.5 0 1 599.64 504.92
  L 584.42 520.14
  A 0.59 0.59 0.0 0 1 583.53 520.07
  C 578.96 513.86 573.65 509.94 567.68 505.13
  Z"
/>
<path fill="#ffffff" d="
  M 597.42 579.53
  Q 597.24 578.67 597.26 577.75
  C 597.58 567.39 597.97 555.48 597.06 546.42
  Q 596.11 536.85 591.26 528.67
  A 1.32 1.32 0.0 0 1 591.41 527.12
  Q 598.70 518.73 606.67 511.88
  A 1.07 1.07 0.0 0 1 608.12 511.94
  L 636.52 540.33
  A 0.55 0.54 -45.4 0 1 636.52 541.10
  L 597.93 579.68
  A 0.30 0.30 0.0 0 1 597.42 579.53
  Z"
/>
<path fill="#ffffff" d="
  M 426.80 580.66
  A 0.30 0.30 0.0 0 1 426.26 580.80
  Q 423.96 577.73 420.19 573.73
  Q 407.28 559.99 388.71 541.13
  A 1.07 1.07 0.0 0 1 388.71 539.62
  L 416.22 512.11
  A 0.88 0.88 0.0 0 1 417.46 512.11
  L 433.48 528.12
  A 0.94 0.94 0.0 0 1 433.62 529.27
  Q 427.34 539.67 427.07 552.26
  Q 426.92 558.74 427.05 578.25
  Q 427.06 579.07 426.80 580.66
  Z"
/>
<path fill="#ffffff" d="
  M 328.64 673.61
  C 326.75 672.75 324.44 672.09 322.73 672.72
  C 321.91 673.02 321.40 672.89 320.75 672.22
  Q 278.45 628.17 264.39 568.36
  Q 260.13 550.20 258.26 533.17
  A 0.33 0.33 0.0 0 1 258.83 532.91
  Q 273.89 549.65 286.45 562.10
  C 301.72 577.23 317.21 587.58 336.59 594.27
  A 0.47 0.46 18.4 0 1 336.88 594.84
  Q 328.76 623.05 328.34 652.75
  Q 328.30 655.73 329.34 673.13
  A 0.50 0.49 10.5 0 1 328.64 673.61
  Z"
/>
<path fill="#ffffff" d="
  M 766.19 534.26
  A 0.27 0.27 0.0 0 1 766.64 534.49
  C 764.84 550.42 761.29 567.46 757.49 581.25
  Q 755.13 589.79 750.18 600.94
  C 744.15 614.51 737.59 629.08 728.68 640.94
  Q 722.69 648.93 703.02 672.58
  A 1.22 1.21 -62.2 0 1 701.78 672.97
  Q 699.04 672.23 695.56 673.23
  A 0.42 0.42 0.0 0 1 695.03 672.82
  Q 695.09 664.53 695.01 652.26
  Q 694.96 644.93 694.51 640.75
  C 693.96 635.69 694.00 631.34 693.43 625.42
  Q 692.06 611.25 687.69 595.56
  A 0.64 0.63 73.1 0 1 688.09 594.80
  Q 721.12 583.00 744.95 556.45
  Q 757.23 542.77 766.19 534.26
  Z"
/>
<path fill="#ffffff" d="
  M 587.60 580.16
  Q 587.51 580.24 587.40 580.31
  Q 587.35 580.35 587.17 580.34
  Q 566.69 580.08 560.25 579.97
  Q 551.55 579.82 543.76 575.66
  A 0.48 0.48 0.0 0 1 543.65 574.90
  Q 558.10 560.42 563.09 555.47
  Q 568.07 550.52 582.66 536.17
  A 0.48 0.48 0.0 0 1 583.42 536.28
  Q 587.52 544.10 587.61 552.80
  Q 587.67 559.24 587.79 579.73
  Q 587.80 579.91 587.76 579.96
  Q 587.69 580.07 587.60 580.16
  Z"
/>
<path fill="#ffffff" d="
  M 441.32 536.34
  A 0.17 0.17 0.0 0 1 441.60 536.29
  L 480.36 575.05
  A 0.38 0.38 0.0 0 1 480.25 575.67
  Q 470.60 580.20 459.50 580.33
  Q 447.20 580.47 437.37 581.22
  A 0.61 0.61 0.0 0 1 436.72 580.58
  Q 437.18 571.06 436.88 563.10
  Q 436.50 552.85 437.11 549.43
  Q 438.20 543.38 441.32 536.34
  Z"
/>
<path fill="#ffffff" d="
  M 351.23 587.18
  C 358.12 572.45 369.15 559.97 380.70 546.82
  A 0.59 0.58 45.9 0 1 381.59 546.84
  Q 386.85 553.21 392.80 559.22
  Q 403.77 570.31 417.52 583.89
  A 0.45 0.44 -27.6 0 1 417.28 584.64
  C 403.41 587.09 387.77 590.64 373.00 590.07
  Q 366.80 589.83 351.57 587.80
  A 0.44 0.44 0.0 0 1 351.23 587.18
  Z"
/>
<path fill="#ffffff" d="
  M 673.32 587.97
  Q 671.76 588.59 669.76 588.72
  Q 656.20 589.60 649.01 590.00
  Q 641.43 590.41 629.01 588.48
  Q 622.25 587.43 606.71 584.82
  A 0.46 0.46 0.0 0 1 606.46 584.04
  L 643.05 547.45
  A 0.44 0.43 44.5 0 1 643.66 547.45
  C 655.21 558.49 667.10 572.21 673.64 587.20
  A 0.58 0.58 0.0 0 1 673.32 587.97
  Z"
/>
<path fill="#ffffff" d="
  M 528.45 576.29
  A 0.75 0.75 0.0 0 1 528.46 577.44
  Q 519.76 584.69 513.02 592.58
  A 1.24 1.24 0.0 0 1 511.14 592.58
  Q 504.01 584.28 496.24 578.07
  A 0.79 0.78 43.2 0 1 496.20 576.87
  Q 505.29 568.70 512.03 559.26
  A 0.48 0.48 0.0 0 1 512.82 559.27
  Q 519.17 568.80 528.45 576.29
  Z"
/>
<path fill="#ffffff" d="
  M 436.29 590.54
  A 0.20 0.19 70.1 0 1 436.44 590.21
  Q 443.05 590.50 451.99 590.26
  C 465.98 589.87 476.04 589.87 487.20 583.16
  A 1.37 1.37 0.0 0 1 488.88 583.36
  L 505.34 599.82
  A 0.93 0.93 0.0 0 1 505.34 601.13
  L 477.30 629.16
  A 1.25 1.25 0.0 0 1 475.57 629.20
  Q 456.83 612.02 436.29 590.54
  Z"
/>
<path fill="#ffffff" d="
  M 586.90 589.55
  A 0.38 0.37 21.6 0 1 587.18 590.19
  C 575.17 602.07 561.88 616.56 548.29 628.31
  A 0.75 0.74 49.7 0 1 547.22 628.22
  Q 543.80 624.03 539.56 619.69
  Q 529.05 608.94 519.79 600.00
  A 0.76 0.76 0.0 0 1 519.78 598.93
  L 535.18 583.53
  A 1.49 1.48 -52.2 0 1 536.97 583.30
  C 551.50 591.71 568.79 590.05 586.90 589.55
  Z"
/>
<path fill="#ffffff" d="
  M 600.52 592.71
  C 601.97 592.86 603.34 593.66 604.95 594.02
  Q 622.83 597.96 641.83 599.39
  C 648.39 599.89 654.60 598.99 661.52 599.01
  C 666.56 599.02 671.63 597.85 676.69 597.83
  A 0.90 0.89 -8.2 0 1 677.55 598.47
  C 681.33 611.44 682.95 622.98 684.24 636.65
  Q 686.03 655.62 684.21 675.26
  A 0.76 0.75 -3.1 0 1 683.60 675.93
  C 672.48 678.01 659.64 679.40 646.75 678.71
  Q 629.31 677.78 627.25 677.47
  Q 616.35 675.84 605.69 671.20
  A 0.59 0.59 0.0 0 1 605.35 670.62
  Q 605.98 663.43 607.24 651.52
  Q 608.15 643.00 607.37 633.98
  Q 605.43 611.63 599.91 593.44
  A 0.57 0.57 0.0 0 1 600.52 592.71
  Z"
/>
<path fill="#ffffff" d="
  M 423.31 593.81
  A 0.59 0.59 0.0 0 1 424.03 594.53
  Q 418.92 614.75 417.37 635.97
  Q 416.13 652.94 419.49 670.48
  A 0.43 0.43 0.0 0 1 419.24 670.96
  Q 408.30 675.81 396.23 676.63
  Q 389.04 677.12 371.40 678.24
  C 360.47 678.93 352.13 678.40 341.84 677.81
  A 1.62 1.62 0.0 0 1 340.31 676.26
  C 339.89 666.61 338.38 656.95 339.08 647.53
  C 340.65 626.51 341.12 613.94 346.58 597.69
  A 0.74 0.74 0.0 0 1 347.45 597.21
  Q 362.60 600.64 377.00 599.75
  Q 377.11 599.75 396.58 598.14
  Q 411.03 596.96 423.31 593.81
  Z"
/>
<path fill="#ffffff" d="
  M 591.42 599.24
  A 0.29 0.29 0.0 0 1 591.86 599.42
  Q 594.71 612.00 596.39 622.88
  Q 599.74 644.59 595.79 666.38
  A 0.73 0.73 0.0 0 1 594.77 666.92
  C 579.43 660.11 565.72 648.13 554.57 635.74
  A 0.60 0.59 -44.0 0 1 554.59 634.91
  C 556.54 633.02 558.71 631.40 560.86 629.40
  Q 567.79 622.97 590.34 600.09
  Q 590.76 599.67 591.42 599.24
  Z"
/>
<path fill="#ffffff" d="
  M 429.74 666.86
  A 0.43 0.42 71.2 0 1 429.12 666.55
  C 428.31 661.76 427.41 657.28 427.15 652.48
  Q 426.30 636.49 428.42 621.18
  Q 429.86 610.80 432.13 600.09
  A 0.29 0.29 0.0 0 1 432.63 599.95
  Q 450.73 619.95 469.61 635.50
  A 0.38 0.37 -46.4 0 1 469.62 636.06
  C 456.69 648.15 444.52 658.86 429.74 666.86
  Z"
/>
<path fill="#ffffff" d="
  M 513.14 606.90
  L 540.79 634.55
  A 0.34 0.34 0.0 0 1 540.79 635.04
  L 512.48 661.92
  A 0.34 0.34 0.0 0 1 512.02 661.93
  L 483.77 636.28
  A 0.34 0.34 0.0 0 1 483.76 635.79
  L 512.66 606.90
  A 0.34 0.34 0.0 0 1 513.14 606.90
  Z"
/>
<path fill="#ffffff" d="
  M 547.29 642.31
  A 0.41 0.41 0.0 0 1 547.88 642.34
  Q 556.19 651.68 564.03 659.00
  Q 576.24 670.40 591.89 676.60
  A 1.65 1.65 0.0 0 1 592.88 678.56
  C 587.32 699.35 574.80 714.83 559.28 730.28
  Q 546.74 742.76 538.23 750.72
  C 528.95 759.40 519.38 769.05 512.00 776.54
  A 0.57 0.57 0.0 0 1 511.19 776.54
  C 508.47 773.77 505.18 769.75 501.72 766.50
  Q 487.42 753.11 472.72 738.80
  Q 462.37 728.74 454.76 719.76
  Q 448.60 712.51 441.46 701.04
  Q 435.09 690.82 432.06 678.79
  A 0.96 0.95 68.1 0 1 432.52 677.71
  C 448.58 668.75 462.19 656.68 475.12 643.44
  A 1.24 1.23 -46.5 0 1 476.84 643.39
  L 502.92 667.07
  A 1.41 1.40 -64.3 0 1 503.36 668.33
  C 502.75 671.91 502.41 675.31 504.35 678.18
  C 506.95 682.04 512.57 683.88 516.54 681.00
  C 520.59 678.06 521.21 674.03 521.08 669.08
  Q 521.04 667.49 523.02 665.51
  Q 533.30 655.26 547.29 642.31
  Z"
/>
<path fill="#ffffff" d="
  M 342.57 688.54
  A 0.47 0.47 0.0 0 1 343.06 687.99
  C 345.83 688.15 349.08 688.93 352.71 688.96
  Q 369.51 689.08 373.25 688.77
  Q 386.93 687.63 400.57 686.55
  Q 408.58 685.91 414.25 684.21
  Q 420.51 682.33 421.91 682.03
  A 0.66 0.65 76.6 0 1 422.68 682.51
  C 426.37 696.93 432.45 709.02 442.20 721.04
  C 454.97 736.75 468.89 748.80 484.18 763.09
  A 0.56 0.56 0.0 0 1 483.76 764.06
  C 478.83 763.67 474.49 762.49 468.86 761.54
  Q 452.59 758.78 433.74 752.71
  Q 414.61 746.55 400.36 738.78
  Q 381.94 728.74 365.74 715.48
  Q 353.64 705.58 344.65 697.70
  A 1.67 1.64 16.0 0 1 344.10 696.73
  L 342.57 688.54
  Z"
/>
<path fill="#ffffff" d="
  M 540.19 764.19
  A 0.39 0.39 0.0 0 1 539.98 763.52
  C 559.88 744.23 568.02 736.69 580.53 722.83
  Q 587.82 714.75 591.70 708.07
  C 596.55 699.70 599.76 691.40 602.73 682.41
  A 0.81 0.80 18.4 0 1 603.76 681.90
  C 617.86 686.67 633.66 689.03 648.92 689.05
  C 662.72 689.06 670.31 688.89 681.21 686.93
  A 0.42 0.42 0.0 0 1 681.68 687.48
  Q 680.37 691.20 681.08 694.74
  A 2.21 2.19 59.7 0 1 680.60 696.60
  Q 677.02 700.78 673.59 703.84
  C 659.65 716.23 644.05 728.34 627.58 737.21
  Q 613.26 744.91 601.57 749.52
  C 582.55 757.02 563.33 760.23 541.37 764.13
  Q 540.67 764.26 540.19 764.19
  Z"
/>
</svg>
